<svg width="9" height="18" viewBox="0 0 9 18" fill="none" xmlns="http://www.w3.org/2000/svg">
<path d="M1.2522 17.5365C0.960135 17.5371 0.67709 17.4354 0.4522 17.249C0.325627 17.1441 0.220999 17.0152 0.144309 16.8698C0.0676195 16.7244 0.0203741 16.5652 0.00527928 16.4015C-0.00981555 16.2378 0.00753697 16.0727 0.0563426 15.9157C0.105148 15.7587 0.184447 15.6129 0.2897 15.4865L5.8897 8.78655L0.489701 2.07405C0.385868 1.94619 0.308328 1.79907 0.261539 1.64114C0.214749 1.48322 0.199632 1.3176 0.217056 1.15382C0.23448 0.990033 0.284101 0.831306 0.363068 0.68676C0.442035 0.542215 0.548792 0.4147 0.6772 0.311547C0.806533 0.197751 0.95799 0.111917 1.12207 0.0594304C1.28615 0.00694408 1.4593 -0.0110605 1.63067 0.00654556C1.80203 0.0241517 1.96791 0.0769889 2.11789 0.161741C2.26787 0.246493 2.39871 0.361331 2.5022 0.499047L8.5397 7.99905C8.72355 8.22271 8.82406 8.50327 8.82406 8.7928C8.82406 9.08233 8.72355 9.36288 8.5397 9.58655L2.2897 17.0865C2.1643 17.2378 2.00501 17.3574 1.82475 17.4356C1.64449 17.5138 1.44833 17.5484 1.2522 17.5365Z" fill="white"/>
</svg>
