<svg width="9" height="18" viewBox="0 0 9 18" fill="none" xmlns="http://www.w3.org/2000/svg">
<path d="M7.57187 0.00227165C7.86393 0.00170101 8.14698 0.103419 8.37187 0.28977C8.49844 0.394706 8.60307 0.523584 8.67976 0.669018C8.75645 0.814452 8.80369 0.973585 8.81879 1.13731C8.83388 1.30103 8.81653 1.46612 8.76772 1.62312C8.71892 1.78013 8.63962 1.92596 8.53437 2.05227L2.93437 8.75227L8.33437 15.4648C8.4382 15.5926 8.51574 15.7398 8.56253 15.8977C8.60932 16.0556 8.62443 16.2212 8.60701 16.385C8.58959 16.5488 8.53997 16.7075 8.461 16.8521C8.38203 16.9966 8.27527 17.1241 8.14687 17.2273C8.01753 17.3411 7.86608 17.4269 7.702 17.4794C7.53792 17.5319 7.36476 17.5499 7.1934 17.5323C7.02203 17.5147 6.85615 17.4618 6.70618 17.3771C6.5562 17.2923 6.42536 17.1775 6.32187 17.0398L0.284367 9.53977C0.100514 9.3161 6.67572e-06 9.03555 6.67572e-06 8.74602C6.67572e-06 8.45649 0.100514 8.17594 0.284367 7.95227L6.53437 0.452272C6.65976 0.301001 6.81905 0.181419 6.99932 0.103233C7.17958 0.0250474 7.37573 -0.00954158 7.57187 0.00227165Z" fill="white"/>
</svg>
