<?xml version="1.0" encoding="utf-8"?>
<!-- Generator: Adobe Illustrator 23.0.5, SVG Export Plug-In . SVG Version: 6.00 Build 0)  -->
<svg version="1.1" id="Layer_1" xmlns="http://www.w3.org/2000/svg" xmlns:xlink="http://www.w3.org/1999/xlink" x="0px" y="0px"
	 viewBox="0 0 128 128" style="enable-background:new 0 0 128 128;" xml:space="preserve">
<style type="text/css">
	.st0{fill:#0AC0AC;}
</style>
<g>
	<g>
		<g>
			<path class="st0" d="M88.1,55c0-2.8-2.2-5-5-5H31.6c-2.8,0-5,2.2-5,5s2.2,5,5,5h51.5C85.9,60,88.1,57.8,88.1,55z"/>
			<path class="st0" d="M31.6,70c-2.8,0-5,2.2-5,5s2.2,5,5,5h31.3c2.8,0,5-2.2,5-5s-2.2-5-5-5H31.6z"/>
			<path class="st0" d="M43.4,118H26.6c-5.5,0-10-4.5-10-10V20c0-5.5,4.5-10,10-10h61.5c5.5,0,10,4.5,10,10v30.8c0,2.8,2.2,5,5,5
				s5-2.2,5-5V20c0-11-9-20-20-20H26.6c-11,0-20,9-20,20v88c0,11,9,20,20,20h16.7c2.8,0,5-2.2,5-5S46.1,118,43.4,118z"/>
			<path class="st0" d="M117,72.4c-5.8-5.8-15.4-5.8-21.2,0L68.3,99.8c-0.6,0.6-1,1.3-1.3,2.1l-6,19.7c-0.5,1.7-0.1,3.6,1.2,4.9
				c1,1,2.2,1.5,3.6,1.5c0.4,0,0.9-0.1,1.3-0.2l20.2-5.6c0.8-0.2,1.6-0.7,2.2-1.3L117,93.6C122.8,87.8,122.8,78.2,117,72.4z
				 M83.4,112.9l-10.2,2.8l3-9.8l18.5-18.5l7.1,7.1L83.4,112.9z M109.9,86.5l-1,1l-7.1-7.1l1-1c1.9-1.9,5.1-1.9,7.1,0
				S111.8,84.6,109.9,86.5z"/>
			<path class="st0" d="M83.1,30H31.6c-2.8,0-5,2.2-5,5s2.2,5,5,5h51.5c2.8,0,5-2.2,5-5S85.9,30,83.1,30z"/>
		</g>
	</g>
</g>
</svg>
