<?xml version="1.0" encoding="utf-8"?>
<!-- Generator: Adobe Illustrator 23.0.5, SVG Export Plug-In . SVG Version: 6.00 Build 0)  -->
<svg version="1.1" id="Layer_1" xmlns="http://www.w3.org/2000/svg" xmlns:xlink="http://www.w3.org/1999/xlink" x="0px" y="0px"
	 viewBox="0 0 128 128" style="enable-background:new 0 0 128 128;" xml:space="preserve">
<style type="text/css">
	.st0{fill:#1ACAA0;}
	.st1{fill:#1CB78E;}
</style>
<path class="st0" d="M64,97.8c2.1,0,4.2-0.2,6.3-0.6V78.8c0-1.3,0.7-2.6,1.9-3.2c5-2.9,8.1-8.3,8.1-14.1c0-4.5-1.9-8.7-5-11.7v6.7
	c0,1.3-0.6,2.4-1.7,3.1l-7.5,5c-1.3,0.8-2.9,0.8-4.2,0l-7.5-5c-1-0.7-1.7-1.9-1.7-3.1v-6.7c-3.1,3-5,7.2-5,11.7
	c0,5.8,3.1,11.2,8.1,14.1c1.2,0.7,1.9,1.9,1.9,3.2v18.4C59.8,97.5,61.9,97.8,64,97.8z"/>
<path class="st1" d="M64,30.3c-18.6,0-33.8,15.1-33.8,33.8c0,13.7,8.2,25.5,20,30.8v-14c-6.2-4.4-10-11.7-10-19.3
	c0-9.7,5.8-18.4,14.8-22c1.2-0.5,2.5-0.3,3.5,0.4c1,0.7,1.7,1.9,1.7,3.1v11.5L64,57l3.8-2.5V43c0-1.2,0.6-2.4,1.7-3.1
	c1-0.7,2.3-0.8,3.5-0.4c9,3.7,14.8,12.3,14.8,22c0,7.7-3.8,14.9-10,19.3v14c11.8-5.3,20-17.1,20-30.8C97.8,45.4,82.6,30.3,64,30.3z"
	/>
<path class="st0" d="M124.3,47.8h-6.4c-1.1-3.6-2.5-7-4.3-10.3l4.4-4.4c1.5-1.5,1.5-3.8,0-5.3l-17.7-17.7C99.5,9.4,98.6,9,97.6,9
	c-1,0-1.9,0.4-2.7,1.1l-4.4,4.4c-3.3-1.8-6.7-3.2-10.3-4.3V3.8c0-2.1-1.7-3.8-3.8-3.8h-25c-2.1,0-3.8,1.7-3.8,3.8v6.4
	c-3.6,1.1-7,2.5-10.3,4.3l-4.4-4.4C32.4,9.4,31.4,9,30.4,9c-1,0-1.9,0.4-2.7,1.1L10.1,27.8c-1.5,1.5-1.5,3.8,0,5.3l4.4,4.4
	c-1.8,3.3-3.2,6.7-4.3,10.3H3.8c-2.1,0-3.8,1.7-3.8,3.8v25c0,2.1,1.7,3.8,3.8,3.8h6.4c1.1,3.6,2.5,7,4.3,10.3l-4.4,4.4
	c-1.5,1.5-1.5,3.8,0,5.3l17.7,17.7c0.7,0.7,1.7,1.1,2.7,1.1c1,0,1.9-0.4,2.7-1.1l4.4-4.4c3.3,1.8,6.7,3.2,10.3,4.3v6.4
	c0,2.1,1.7,3.8,3.8,3.8h25c2.1,0,3.8-1.7,3.8-3.8v-6.4c3.6-1.1,7-2.5,10.3-4.3l4.4,4.4c0.7,0.7,1.7,1.1,2.7,1.1c1,0,1.9-0.4,2.7-1.1
	l17.7-17.7c1.5-1.5,1.5-3.8,0-5.3l-4.4-4.4c1.8-3.3,3.2-6.7,4.3-10.3h6.4c2.1,0,3.8-1.7,3.8-3.8v-25C128,49.4,126.3,47.8,124.3,47.8
	z M64,105.3c-22.7,0-41.3-18.5-41.3-41.3S41.3,22.8,64,22.8s41.3,18.5,41.3,41.3S86.7,105.3,64,105.3z"/>
</svg>
