<?xml version="1.0" encoding="utf-8"?>
<!-- Generator: Adobe Illustrator 23.0.5, SVG Export Plug-In . SVG Version: 6.00 Build 0)  -->
<svg version="1.1" id="Layer_1" xmlns="http://www.w3.org/2000/svg" xmlns:xlink="http://www.w3.org/1999/xlink" x="0px" y="0px"
	 viewBox="0 0 128 128" style="enable-background:new 0 0 128 128;" xml:space="preserve">
<style type="text/css">
	.st0{fill:#1CB78E;}
	.st1{fill:#1ACAA0;}
</style>
<path class="st0" d="M128,86.6c0-15.9-9.1-30.1-22.8-37c-0.4,30.5-25.1,55.1-55.6,55.6c6.9,13.6,21.1,22.8,37,22.8
	c7.4,0,14.7-2,21.1-5.8l20.1,5.6l-5.6-20.1C126,101.3,128,94.1,128,86.6z"/>
<path class="st1" d="M97.8,48.9C97.8,21.9,75.8,0,48.9,0S0,21.9,0,48.9c0,8.8,2.3,17.3,6.8,24.8L0.2,97.6L24,91
	c7.5,4.4,16.1,6.8,24.8,6.8C75.8,97.8,97.8,75.8,97.8,48.9z M41.4,37.5h-7.5c0-8.3,6.7-15,15-15s15,6.7,15,15
	c0,4.2-1.8,8.2-4.9,11.1l-6.4,5.8v5.8h-7.5v-9.2l8.8-8.1c1.6-1.4,2.4-3.4,2.4-5.5c0-4.1-3.4-7.5-7.5-7.5S41.4,33.4,41.4,37.5z
	 M45.1,67.8h7.5v7.5h-7.5V67.8z"/>
</svg>
