<?xml version="1.0" encoding="utf-8"?>
<!-- Generator: Adobe Illustrator 23.0.5, SVG Export Plug-In . SVG Version: 6.00 Build 0)  -->
<svg version="1.1" id="Layer_1" xmlns="http://www.w3.org/2000/svg" xmlns:xlink="http://www.w3.org/1999/xlink" x="0px" y="0px"
	 viewBox="0 0 128 128" style="enable-background:new 0 0 128 128;" xml:space="preserve">
<style type="text/css">
	.st0{fill:#1ACAA0;}
	.st1{fill:#1CB78E;}
	.st2{fill:#FFFFFF;}
	.st3{fill:#E1E1E3;}
</style>
<circle class="st0" cx="64" cy="64" r="64"/>
<path class="st1" d="M127.5,72.3L71.1,15.2H57.2v29.6L44.9,31.4c-7,3.5-13,8.9-17.2,15.6c-4.3,6.9-6.6,14.8-6.6,22.9
	c0,12.4,5.3,23.6,13.7,31.5l26.6,26.6c0.8,0,1.7,0.1,2.5,0.1C96.5,128,123.4,103.7,127.5,72.3z"/>
<g>
	<rect x="57.2" y="15.2" class="st2" width="13.9" height="43.3"/>
	<path class="st2" d="M100.5,46.9c-4.2-6.7-10.1-12-17.2-15.6l-4.9,9.9c10.9,5.5,17.7,16.4,17.7,28.6c0,17.6-14.3,32-32,32
		c-17.6,0-32-14.3-32-32c0-12.2,6.8-23.1,17.7-28.6l-4.9-9.9c-7,3.5-13,8.9-17.2,15.6c-4.3,6.9-6.6,14.8-6.6,22.9
		c0,23.7,19.3,43,43,43s43-19.3,43-43C107.1,61.7,104.8,53.8,100.5,46.9z"/>
</g>
<g>
	<rect x="64.1" y="15.2" class="st3" width="6.9" height="43.3"/>
	<path class="st3" d="M107.1,69.8c0-8.1-2.3-16.1-6.6-22.9c-4.2-6.7-10.1-12-17.2-15.6l-4.9,9.9c10.9,5.5,17.7,16.4,17.7,28.6
		c0,17.6-14.3,32-32,32l0,0v11l0,0C87.8,112.8,107.1,93.5,107.1,69.8z"/>
</g>
</svg>
