<svg width="432" height="576" viewBox="0 0 432 576" fill="none" xmlns="http://www.w3.org/2000/svg">
<path d="M328.002 168.593V164.955C328.002 160.863 328.913 158.135 330.735 156.771L328.002 158.59C327.547 158.59 327.547 159.044 327.091 159.044C324.813 160.408 323.902 162.682 323.902 167.229V171.321L328.002 168.593Z" fill="url(#paint0_linear_522_9966)"/>
<path d="M300.667 450.504C300.667 451.413 300.212 452.323 299.756 452.323L297.023 454.142C296.567 454.596 297.023 453.687 296.112 453.232C294.29 452.323 292.923 450.049 292.923 447.776C292.923 446.866 292.012 446.866 292.467 446.412L295.656 444.593C296.112 444.138 297.023 444.138 297.934 445.048C299.301 445.957 300.667 448.231 300.667 450.504Z" fill="url(#paint1_linear_522_9966)"/>
<path d="M297.479 451.868C297.479 453.687 296.113 454.596 294.29 453.687C292.468 452.777 291.102 450.504 291.102 448.231C291.102 446.412 292.468 445.502 294.29 446.412C296.113 447.776 297.479 450.049 297.479 451.868Z" fill="url(#paint2_linear_522_9966)"/>
<path d="M301.578 450.504C301.578 448.231 299.756 445.502 297.934 444.138C297.023 443.684 296.112 443.684 295.201 443.684L292.012 445.502C292.467 445.048 293.834 445.048 294.745 445.502C296.567 446.866 298.389 449.595 298.389 451.868L301.578 450.504Z" fill="url(#paint3_linear_522_9966)"/>
<path d="M294.746 446.412C293.835 445.957 293.38 445.957 292.469 445.957C292.924 445.957 293.835 446.412 294.746 446.412C296.113 447.321 297.48 450.049 297.48 451.868C297.48 452.778 297.024 453.687 296.569 453.687C297.48 453.687 297.935 452.778 297.935 451.413C297.935 450.049 296.569 447.776 294.746 446.412Z" fill="url(#paint4_radial_522_9966)"/>
<path d="M367.636 457.325C367.636 458.234 367.18 459.143 366.725 459.143L363.992 460.962C363.536 461.417 363.992 460.507 363.08 460.053C361.258 459.143 359.892 456.87 359.892 454.596C359.892 453.687 358.981 453.687 359.436 453.232L362.625 451.413C363.08 450.959 363.992 450.959 364.903 451.868C366.269 453.232 367.636 455.506 367.636 457.325Z" fill="url(#paint5_linear_522_9966)"/>
<path d="M364.903 459.143C364.903 460.962 363.536 461.871 361.714 460.962C359.892 460.053 358.525 457.779 358.525 455.506C358.525 453.687 359.892 452.778 361.714 453.687C363.536 454.596 364.903 457.324 364.903 459.143Z" fill="url(#paint6_linear_522_9966)"/>
<path d="M368.547 457.779C368.547 455.506 366.725 452.778 364.902 451.413C363.991 450.959 363.08 450.959 362.169 450.959L358.98 452.778C359.436 452.323 360.803 452.323 361.714 452.778C363.536 454.142 365.358 456.87 365.358 459.143L368.547 457.779Z" fill="url(#paint7_linear_522_9966)"/>
<path d="M397.698 420.494C397.698 421.404 397.243 422.313 396.787 422.313L394.054 424.132C393.599 424.586 394.054 423.677 393.143 423.222C391.321 422.313 389.954 420.039 389.954 417.766C389.954 416.857 389.043 416.857 389.499 416.402L392.687 414.583C393.143 414.128 394.054 414.128 394.965 415.038C396.332 415.947 397.698 418.221 397.698 420.494Z" fill="url(#paint8_linear_522_9966)"/>
<path d="M394.965 421.858C394.965 423.677 393.599 424.586 391.777 423.677C389.955 422.768 388.588 420.494 388.588 418.221C388.588 416.402 389.955 415.492 391.777 416.402C393.599 417.311 394.965 420.039 394.965 421.858Z" fill="url(#paint9_linear_522_9966)"/>
<path d="M398.609 420.494C398.609 418.221 396.787 415.492 394.965 414.128C394.054 413.674 393.143 413.674 392.232 413.674L389.043 415.492C389.499 415.038 390.865 415.038 391.776 415.492C393.598 416.857 395.421 419.585 395.421 421.858L398.609 420.494Z" fill="url(#paint10_linear_522_9966)"/>
<path d="M350.323 387.756C350.323 388.665 349.868 389.575 349.412 389.575L346.679 391.394C346.224 391.848 346.679 390.939 345.768 390.484C343.946 389.575 342.579 387.301 342.579 385.028C342.579 384.118 341.668 384.118 342.124 383.664L345.312 381.845C345.768 381.39 346.679 381.39 347.59 382.3C348.957 383.209 350.323 385.482 350.323 387.756Z" fill="url(#paint11_linear_522_9966)"/>
<path d="M347.135 389.12C347.135 390.939 345.769 391.848 343.947 390.939C342.124 390.029 340.758 387.756 340.758 385.482C340.758 383.664 342.124 382.754 343.947 383.664C345.769 385.028 347.135 387.301 347.135 389.12Z" fill="url(#paint12_linear_522_9966)"/>
<path d="M351.234 387.756C351.234 385.483 349.412 382.754 347.59 381.39C346.679 380.936 345.768 380.936 344.857 380.936L341.668 382.754C342.124 382.3 343.49 382.3 344.401 382.754C346.223 384.118 348.046 386.847 348.046 389.12L351.234 387.756Z" fill="url(#paint13_linear_522_9966)"/>
<path d="M344.403 383.664C343.492 383.209 343.036 383.209 342.125 383.209C342.581 383.664 343.492 383.664 344.403 383.664C345.769 384.573 347.136 387.301 347.136 389.12C347.136 390.029 346.68 390.939 346.225 390.939C347.136 390.939 347.592 390.029 347.592 388.665C347.592 387.301 346.225 385.028 344.403 383.664Z" fill="url(#paint14_radial_522_9966)"/>
<path d="M290.648 410.036C290.648 410.946 290.192 411.855 289.737 411.855L287.003 413.674C286.548 414.128 287.003 413.219 286.092 412.764C284.27 411.855 282.903 409.581 282.903 407.308C282.903 406.399 281.992 406.399 282.448 405.944L285.637 404.125C286.092 403.67 287.003 403.67 287.914 404.58C289.281 405.489 290.648 407.763 290.648 410.036Z" fill="url(#paint15_linear_522_9966)"/>
<path d="M287.915 411.4C287.915 413.219 286.548 414.128 284.726 413.219C282.904 412.31 281.537 410.036 281.537 407.763C281.537 405.944 282.904 405.035 284.726 405.944C286.548 406.853 287.915 409.582 287.915 411.4Z" fill="url(#paint16_linear_522_9966)"/>
<path d="M291.559 410.036C291.559 407.763 289.736 405.035 287.914 403.67C287.003 403.216 286.092 403.216 285.181 403.216L281.992 405.035C282.448 404.58 283.814 404.58 284.725 405.035C286.548 406.399 288.37 409.127 288.37 411.4L291.559 410.036Z" fill="url(#paint17_linear_522_9966)"/>
<path d="M284.725 405.944C283.814 405.489 283.358 405.489 282.447 405.489C283.358 405.489 283.814 405.489 284.725 405.944C286.092 406.853 287.458 409.581 287.458 411.4C287.458 412.31 287.003 413.219 286.547 413.219C287.458 413.219 287.914 412.31 287.914 410.946C287.914 409.581 286.547 406.853 284.725 405.944Z" fill="url(#paint18_radial_522_9966)"/>
<path d="M298.393 442.32H293.838V445.048C293.838 445.957 294.749 446.412 296.116 446.412C297.482 446.412 298.393 445.957 298.393 445.048V442.32Z" fill="url(#paint19_linear_522_9966)"/>
<path d="M298.393 442.32C298.393 443.229 297.482 443.684 296.116 443.684C294.749 443.684 293.838 443.229 293.838 442.32C293.838 441.41 294.749 440.956 296.116 440.956C297.027 440.956 298.393 441.865 298.393 442.32Z" fill="url(#paint20_linear_522_9966)"/>
<path d="M289.282 402.761H284.727V405.489C284.727 406.399 285.638 406.853 287.004 406.853C288.371 406.853 289.282 406.399 289.282 405.489V402.761Z" fill="url(#paint21_linear_522_9966)"/>
<path d="M289.282 402.761C289.282 403.67 288.371 404.125 287.004 404.125C285.638 404.125 284.727 403.67 284.727 402.761C284.727 401.852 285.638 401.397 287.004 401.397C287.915 401.397 289.282 401.852 289.282 402.761Z" fill="url(#paint22_linear_522_9966)"/>
<path d="M348.046 380.936H343.49V383.664C343.49 384.573 344.401 385.028 345.768 385.028C347.135 385.028 348.046 384.573 348.046 383.664V380.936Z" fill="url(#paint23_linear_522_9966)"/>
<path d="M396.333 412.764H391.777V415.493C391.777 416.402 392.688 416.857 394.055 416.857C395.422 416.857 396.333 416.402 396.333 415.493V412.764Z" fill="url(#paint24_linear_522_9966)"/>
<path d="M396.333 412.764C396.333 413.674 395.422 414.128 394.055 414.128C392.688 414.128 391.777 413.674 391.777 412.764C391.777 411.855 392.688 411.4 394.055 411.4C394.966 411.4 396.333 412.31 396.333 412.764Z" fill="url(#paint25_linear_522_9966)"/>
<path d="M365.811 449.595H361.256V452.323C361.256 453.232 362.167 453.687 363.534 453.687C364.9 453.687 365.811 453.232 365.811 452.323V449.595Z" fill="url(#paint26_linear_522_9966)"/>
<path d="M365.811 449.595C365.811 450.504 364.9 450.959 363.534 450.959C362.167 450.959 361.256 450.504 361.256 449.595C361.256 448.685 362.167 448.231 363.534 448.231C364.9 448.231 365.811 449.14 365.811 449.595Z" fill="url(#paint27_linear_522_9966)"/>
<path d="M343.035 410.946L385.855 408.672C389.5 408.672 392.689 410.036 395.422 412.764C396.333 413.219 396.788 414.583 395.877 415.038C393.144 412.764 389.955 411.4 386.311 411.855L343.49 417.766L359.89 437.318C362.167 440.501 363.534 443.684 364.9 446.867L365.812 449.595C365.812 451.868 363.078 452.323 362.623 450.504C361.256 445.957 358.523 442.774 355.79 439.137L336.657 420.039L307.047 434.59C302.491 437.318 298.847 440.046 296.114 444.593C295.203 446.412 292.925 445.048 293.38 443.229L293.836 442.32C296.114 438.227 299.302 434.59 303.402 431.862L330.279 416.402L291.558 402.761C289.736 402.306 287.458 402.306 285.636 403.216C284.725 403.67 283.814 403.67 284.27 402.761C286.547 400.488 289.736 399.578 292.925 400.488L333.924 410.491L343.946 381.845C344.401 380.481 348.045 380.936 347.59 382.3L343.035 410.946Z" fill="url(#paint28_linear_522_9966)"/>
<path d="M342.123 407.763H385.855C389.5 407.763 392.688 409.127 395.422 411.855C396.333 412.31 396.788 413.674 395.877 414.128C393.144 411.855 389.955 410.491 386.311 410.946L343.49 412.764L359.889 436.409C362.167 439.591 363.534 442.774 364.9 445.957L365.811 448.685C365.811 450.959 363.078 451.414 362.623 449.595C361.256 445.048 358.523 440.955 355.79 437.318L336.657 415.038L307.047 432.771C302.491 435.499 298.847 439.137 296.114 443.684C295.202 445.502 292.925 444.138 293.38 442.32L293.836 441.41C296.114 437.318 299.302 433.68 303.402 430.952L330.279 411.855L291.558 402.306C289.736 401.852 287.458 401.852 285.636 402.761C284.725 403.216 283.814 403.216 284.725 402.306C287.003 400.033 290.192 399.124 293.38 400.033L334.379 407.763L343.49 383.664L344.401 380.936C344.857 379.572 348.501 380.026 348.045 381.39L347.59 384.573L342.123 407.763Z" fill="url(#paint29_linear_522_9966)"/>
<path d="M343.491 402.306H329.369V410.945C329.369 413.219 332.558 415.038 336.658 415.038C340.758 415.038 343.946 413.219 343.946 410.945V402.306H343.491Z" fill="url(#paint30_linear_522_9966)"/>
<path d="M336.201 406.399C340.226 406.399 343.489 404.566 343.489 402.306C343.489 400.046 340.226 398.214 336.201 398.214C332.175 398.214 328.912 400.046 328.912 402.306C328.912 404.566 332.175 406.399 336.201 406.399Z" fill="url(#paint31_linear_522_9966)"/>
<path d="M342.124 371.842H329.824V400.942C329.824 402.761 332.557 404.58 335.746 404.58C338.935 404.58 341.668 403.216 341.668 400.942V371.842H342.124Z" fill="url(#paint32_linear_522_9966)"/>
<path d="M342.124 358.201H329.824V387.301C329.824 389.12 332.557 390.939 335.746 390.939C338.935 390.939 341.668 389.575 341.668 387.301V358.201H342.124Z" fill="url(#paint33_linear_522_9966)"/>
<path d="M334.383 386.847V393.212L406.358 351.835V345.015L334.383 386.847Z" fill="url(#paint34_linear_522_9966)"/>
<path d="M334.381 386.847V393.212L263.316 352.29V345.469L334.381 386.847Z" fill="url(#paint35_linear_522_9966)"/>
<path d="M334.383 382.754V389.575L406.358 347.743V340.922L334.383 382.754Z" fill="#3FB88C"/>
<path d="M334.381 382.754V389.575L263.316 348.198V341.832L334.381 382.754Z" fill="url(#paint36_linear_522_9966)"/>
<path d="M263.316 341.832L334.381 382.754L406.357 340.922L335.748 300L263.316 341.832Z" fill="#55E5B1"/>
<path d="M406.812 340.922C406.812 310.458 411.368 279.993 420.934 250.893L422.756 245.436L417.29 248.619L401.346 297.726V343.651L406.812 340.922Z" fill="#55E5B1"/>
<path d="M417.288 249.074L346.223 207.697L344.401 213.608C335.29 242.253 330.279 272.263 330.279 302.273V302.728L401.344 344.105C401.344 313.641 405.899 283.631 415.466 254.53L417.288 249.074Z" fill="#78FFBE"/>
<path d="M346.223 207.242L417.287 249.074L422.298 245.891L351.689 204.514L346.223 207.242Z" fill="#55E5B1"/>
<path d="M258.303 342.287C251.014 345.469 254.203 358.656 261.036 361.384C267.869 364.112 301.124 382.3 310.69 377.298C320.257 372.296 310.235 363.203 301.579 360.02C292.924 356.837 261.492 340.922 258.303 342.287Z" fill="url(#paint37_linear_522_9966)"/>
<path d="M316.611 304.092C316.611 304.092 295.201 318.642 278.346 330.464C266.046 339.104 252.836 346.834 251.469 357.292C250.102 367.75 252.836 375.934 256.48 387.756C259.669 399.578 265.591 415.947 264.224 427.315C262.857 440.046 243.725 449.14 245.091 459.143C245.547 461.417 261.491 463.236 269.691 455.506C271.968 453.232 278.346 445.048 279.257 442.32C284.268 431.407 279.257 425.496 278.346 421.404C277.435 416.857 279.257 394.122 279.257 383.664C279.257 373.206 276.524 361.384 276.524 361.384C276.524 361.384 300.667 353.654 317.522 346.379C333.922 339.558 349.866 310.003 349.866 310.003L316.611 304.092Z" fill="url(#paint38_radial_522_9966)"/>
<path d="M341.209 315.459C341.209 315.459 327.999 325.917 313.877 338.649C299.755 351.38 280.622 364.567 280.622 374.57C280.622 382.754 284.267 391.394 288.367 404.58C292.467 417.766 294.744 437.318 293.833 444.593C292.011 460.962 270.6 472.329 276.523 472.784C280.167 473.239 301.577 478.241 307.955 466.873C312.51 459.143 313.877 447.321 309.777 439.591C307.044 434.135 310.233 410.946 311.144 400.033C312.055 389.12 307.955 376.389 307.955 376.389C307.955 376.389 354.876 361.384 368.998 346.833C383.575 332.738 375.375 314.095 375.375 314.095L341.209 315.459Z" fill="url(#paint39_radial_522_9966)"/>
<path d="M324.356 287.723C324.356 287.723 318.89 298.636 315.245 302.728C311.601 306.82 302.035 310.003 285.635 321.371C270.602 331.829 258.303 342.741 258.303 342.741C258.303 342.741 297.479 360.929 302.49 363.657C309.779 367.295 311.146 377.753 311.146 377.753C311.146 377.753 353.511 359.565 364.899 352.745C379.021 344.56 381.299 335.466 379.932 322.28C378.566 309.548 370.366 289.542 370.366 289.542L324.356 287.723Z" fill="white"/>
<path d="M379.476 322.28C378.109 309.548 369.909 289.542 369.909 289.542L363.987 289.087C363.987 290.451 363.987 291.815 363.987 292.725C364.898 300.909 368.543 327.736 363.987 339.558C359.887 350.926 323.444 364.112 307.5 369.568C309.778 373.661 310.233 377.753 310.233 377.753C310.233 377.753 352.599 359.565 363.987 352.745C378.565 344.105 380.842 335.011 379.476 322.28Z" fill="#BCBEC0"/>
<path d="M318.89 264.988L303.857 258.168C303.857 258.168 310.235 235.433 311.146 229.522C312.057 223.611 316.613 207.697 327.546 206.333C339.845 204.514 335.745 224.066 333.012 231.795C330.734 239.98 318.89 264.988 318.89 264.988Z" fill="#E0DCFF"/>
<path d="M332.558 205.878C322.08 205.423 322.536 206.787 320.258 208.606C317.981 210.425 316.158 223.156 315.703 229.067C314.792 235.433 305.225 250.893 314.336 259.532C323.447 268.626 323.903 276.356 323.903 279.539C323.903 282.721 322.991 289.542 322.991 289.542C322.991 289.542 342.58 297.726 355.335 298.181C366.723 298.181 371.279 293.634 371.279 293.634C371.279 293.634 370.368 275.901 371.734 269.99C372.646 264.079 383.123 228.613 380.39 223.611C377.656 218.609 368.09 216.336 360.801 213.153C353.513 210.88 332.558 205.878 332.558 205.878Z" fill="white"/>
<path d="M335.744 207.242C334.832 213.153 337.566 215.881 333.466 221.792C329.366 228.158 337.566 230.886 342.121 231.341C348.954 231.796 355.787 224.52 357.609 221.792C359.887 218.609 360.798 214.517 358.521 211.334C355.787 207.697 356.698 201.786 356.698 197.239C356.698 179.96 335.744 206.787 335.744 207.242Z" fill="url(#paint40_radial_522_9966)"/>
<path d="M280.169 467.328C278.346 468.237 274.247 471.42 272.88 475.058C271.513 479.15 274.702 480.969 279.713 482.333C285.18 483.697 291.102 483.697 294.746 482.333C298.39 480.969 302.49 472.784 303.401 472.784C304.312 472.784 307.957 474.148 307.957 474.148C308.412 474.148 310.69 471.42 310.69 471.42C310.69 470.965 311.601 461.417 312.968 458.689C314.334 455.96 316.156 453.687 315.245 449.14C314.334 444.593 311.145 442.32 311.145 442.32C311.145 442.32 312.512 445.957 310.69 451.413C308.868 456.87 301.579 467.783 301.123 469.147C300.668 470.511 297.024 474.148 297.024 474.148C297.024 474.148 294.746 470.511 289.735 468.692C285.635 466.873 280.169 467.328 280.169 467.328Z" fill="white"/>
<path d="M247.825 450.049C246.003 450.959 241.903 454.142 240.536 457.779C239.17 461.872 242.358 463.69 247.369 465.054C252.836 466.418 258.758 466.418 262.402 465.054C266.046 463.69 270.146 455.506 271.057 455.506C271.969 455.506 275.613 456.87 275.613 456.87C276.068 456.87 278.346 454.142 278.346 454.142C278.346 453.687 279.257 444.138 280.624 441.41C281.99 438.682 283.813 436.409 282.902 431.862C281.99 427.315 278.802 425.041 278.802 425.041C278.802 425.041 280.168 428.679 278.346 434.135C276.524 439.591 269.235 450.504 268.78 451.868C268.324 453.232 264.68 456.87 264.68 456.87C264.68 456.87 262.402 453.232 257.391 451.414C252.836 449.595 247.825 450.049 247.825 450.049Z" fill="white"/>
<path d="M371.278 293.634C371.278 293.634 370.367 275.901 371.733 269.99C372.189 267.262 374.922 258.168 377.2 248.619C375.378 250.893 373.556 253.621 372.189 255.894C367.634 264.079 363.989 286.359 364.9 294.544C364.9 295.453 364.9 296.362 365.356 297.272C369.456 295.908 371.278 293.634 371.278 293.634Z" fill="#E0DCFF"/>
<path d="M427.766 382.3H411.822V513.707C411.822 516.435 415.467 518.254 419.566 518.254C424.122 518.254 427.311 515.98 427.311 513.707V382.3H427.766Z" fill="#98BFB3"/>
<path d="M327.092 440.046H311.148V571.453C311.148 574.181 314.793 576 318.893 576C323.448 576 326.637 573.726 326.637 571.453V440.046H327.092Z" fill="#98BFB3"/>
<path d="M102.508 310.912H86.5645V442.319C86.5645 445.048 90.2088 446.866 94.3087 446.866C98.8641 446.866 102.053 444.593 102.053 442.319V310.912H102.508Z" fill="#98BFB3"/>
<path d="M431.867 386.847V378.207L425.034 376.843L206.83 251.347C200.452 247.71 190.886 247.255 185.419 250.438L86.5667 308.184L82.4668 307.275V317.278C82.4668 319.552 84.289 322.28 87.4778 324.099L307.049 450.049C313.426 453.687 322.993 454.142 328.459 450.959L427.312 393.212C430.956 391.394 431.867 389.12 431.867 386.847Z" fill="#84C8BC"/>
<path d="M328.914 440.955L427.767 383.209C433.234 380.026 432.778 374.57 426.4 370.932L206.829 244.527C200.452 240.889 190.885 240.435 185.419 243.617L86.1107 301.364C80.6442 304.547 81.0997 310.003 87.4773 313.641L307.048 439.591C313.882 443.684 323.448 444.138 328.914 440.955Z" fill="#B1DCD4"/>
<g opacity="0.2">
<path opacity="0.7273" d="M261.491 290.451C263.769 289.087 266.957 288.633 269.691 288.633C271.057 288.633 271.968 289.087 272.88 289.542C273.335 289.542 275.613 290.906 276.068 290.906L347.133 331.829C349.411 333.193 349.866 335.466 348.499 337.285C348.044 337.74 348.044 338.194 347.133 338.649C347.133 339.104 343.033 341.832 342.122 342.287L305.223 363.657L303.856 364.567C302.034 365.476 300.212 365.931 297.934 365.931C295.657 365.931 293.379 365.476 292.012 364.567L219.126 322.28C216.848 320.916 216.392 318.642 217.759 316.369C218.215 315.914 218.214 315.46 218.67 315.005C218.67 314.55 223.225 311.822 223.681 311.367L261.491 290.451Z" fill="black"/>
<path opacity="0.8182" d="M261.947 290.906C264.224 289.542 267.413 289.087 270.146 289.542C271.513 289.542 272.424 289.997 273.335 290.451L276.068 291.815L346.677 332.738C348.955 334.102 349.411 336.376 348.044 338.194C347.588 338.649 347.133 339.104 346.677 339.558C346.677 340.013 342.122 342.741 341.666 342.741L305.223 363.657L303.856 364.567C302.034 365.476 300.212 365.931 297.934 365.931C295.657 365.931 293.834 365.476 292.012 364.567L219.126 322.28C216.848 320.916 216.392 318.642 217.759 316.824C218.215 316.369 218.214 315.914 218.67 315.914C218.67 315.46 223.681 312.731 223.681 312.277L261.947 290.906Z" fill="black"/>
<path opacity="0.9091" d="M261.946 290.906C264.223 289.542 267.412 289.087 270.146 289.542C271.512 289.542 272.423 289.997 273.334 290.451C273.334 290.451 276.068 291.815 276.068 292.27L346.677 332.738C348.954 334.102 349.41 336.376 347.588 338.194C347.132 338.649 346.677 339.104 346.221 339.558C346.221 339.558 341.666 342.287 341.21 342.741L305.678 363.203L304.311 364.112C302.489 365.021 300.667 365.476 298.389 365.476C296.111 365.476 294.289 365.021 292.467 364.112L219.58 321.825C217.303 320.461 216.847 318.188 218.669 316.369C219.125 315.914 219.58 315.46 220.036 315.46C220.036 315.46 225.047 312.277 225.502 312.277L261.946 290.906Z" fill="black"/>
<path d="M292.925 363.657L220.038 321.371C217.305 319.552 217.305 316.824 220.949 315.005L262.404 290.906C265.592 289.087 270.603 288.633 273.792 290.451L346.679 332.738C349.412 334.557 349.412 337.285 345.768 339.104L304.313 363.203C300.669 365.021 295.658 365.476 292.925 363.657Z" fill="black"/>
</g>
<path d="M292.926 363.657L220.039 321.37C218.672 320.461 218.217 319.552 218.217 318.642V315.005C218.217 313.641 219.128 315.914 220.95 315.005L262.404 290.906C265.593 289.087 270.604 288.632 273.793 290.451L346.68 332.738C347.591 333.193 348.502 330.919 348.502 331.828C348.502 332.283 348.502 335.466 348.502 335.466C348.502 336.83 347.591 338.194 345.769 339.104L304.314 363.202C300.67 365.021 295.659 365.476 292.926 363.657Z" fill="url(#paint41_linear_522_9966)"/>
<path d="M292.923 360.02L220.036 317.733C217.303 315.914 217.303 313.186 220.947 311.367L262.402 287.268C265.59 285.45 270.601 284.995 273.79 286.814L346.677 329.1C349.41 330.919 349.41 333.647 345.766 335.466L304.311 359.565C300.667 361.384 295.656 361.838 292.923 360.02Z" fill="url(#paint42_linear_522_9966)"/>
<path d="M297.935 360.02C296.113 360.02 294.746 359.565 293.835 359.11L220.949 316.824C220.493 316.369 219.582 315.914 219.582 315.46C219.582 314.55 220.493 313.641 221.404 313.186L262.859 289.087C264.225 288.178 266.503 287.723 268.325 287.723C270.147 287.723 271.514 288.178 272.425 288.632L345.312 330.919C345.767 331.374 346.678 331.829 346.678 332.283C346.678 333.193 345.767 334.102 344.856 334.557L303.402 358.656C302.035 359.11 299.757 360.02 297.935 360.02Z" fill="url(#paint43_linear_522_9966)"/>
<path d="M296.569 350.016L237.349 315.914C235.982 315.005 236.438 314.095 237.804 313.186L260.126 300.455C261.492 299.545 263.77 299.545 264.681 300.455L323.902 334.557C325.268 335.466 324.813 336.376 323.446 337.285L301.124 350.016C299.758 350.926 297.48 350.926 296.569 350.016Z" fill="url(#paint44_linear_522_9966)"/>
<path opacity="0.3" d="M261.035 303.183L264.679 305.456C265.135 305.911 266.046 305.911 266.501 305.456C266.957 305.002 266.957 304.547 266.501 304.547L262.857 302.273C262.401 301.819 261.49 301.819 261.035 302.273C260.579 302.273 260.579 302.728 261.035 303.183ZM267.412 306.82L269.235 307.73C269.69 308.184 270.601 308.184 271.057 307.73C271.512 307.275 271.512 306.82 271.057 306.82L269.235 305.911C268.779 305.456 267.868 305.456 267.412 305.911C266.957 305.911 266.957 306.366 267.412 306.82ZM271.968 309.549L273.79 310.458C274.246 310.913 275.157 310.913 275.612 310.458C276.068 310.003 276.068 309.549 275.612 309.549L273.79 308.639C273.334 308.184 272.423 308.184 271.968 308.639C271.512 308.639 271.512 309.094 271.968 309.549ZM276.523 311.822L278.345 312.731C278.801 313.186 279.712 313.186 280.168 312.731C280.623 312.277 280.623 311.822 280.168 311.822L278.345 310.913C277.89 310.458 276.979 310.458 276.523 310.913C276.068 311.367 276.068 311.822 276.523 311.822ZM281.079 314.55L282.901 315.46C283.356 315.914 284.267 315.914 284.723 315.46C285.179 315.005 285.179 314.55 284.723 314.55L282.901 313.641C282.445 313.186 281.534 313.186 281.079 313.641C280.623 313.641 280.623 314.095 281.079 314.55ZM285.634 317.278L287.456 318.188C287.912 318.642 288.823 318.642 289.278 318.188C289.734 317.733 289.734 317.278 289.278 317.278L287.456 316.369C287.001 315.914 286.09 315.914 285.634 316.369C285.179 316.369 285.179 316.824 285.634 317.278ZM290.19 319.552L292.012 320.461C292.467 320.916 293.378 320.916 293.834 320.461C294.289 320.007 294.289 319.552 293.834 319.552L292.012 318.642C291.556 318.188 290.645 318.188 290.19 318.642C289.734 319.097 289.734 319.552 290.19 319.552ZM294.745 322.28L296.567 323.189C297.023 323.644 297.934 323.644 298.389 323.189C298.845 322.735 298.845 322.28 298.389 322.28L296.567 321.371C296.112 320.916 295.2 320.916 294.745 321.371C294.289 321.371 294.289 321.825 294.745 322.28ZM299.3 325.008L301.123 325.918C301.578 326.372 302.489 326.372 302.945 325.918C303.4 325.463 303.4 325.008 302.945 325.008L301.123 324.099C300.667 323.644 299.756 323.644 299.3 324.099C298.845 324.099 298.845 324.553 299.3 325.008ZM303.856 327.736L305.678 328.646C306.133 329.1 307.045 329.1 307.5 328.646C307.956 328.191 307.956 327.736 307.5 327.736L305.678 326.827C305.222 326.372 304.311 326.372 303.856 326.827C302.945 326.827 302.945 327.282 303.856 327.736ZM307.956 330.01L309.778 330.919C310.233 331.374 311.144 331.374 311.6 330.919C312.056 330.464 312.056 330.01 311.6 330.01L309.778 329.1C309.322 328.646 308.411 328.646 307.956 329.1C307.5 329.555 307.5 330.01 307.956 330.01ZM312.511 332.738L314.333 333.647C314.789 334.102 315.7 334.102 316.155 333.647C316.611 333.193 316.611 332.738 316.155 332.738L314.333 331.829C313.878 331.374 312.967 331.374 312.511 331.829C312.056 331.829 312.056 332.283 312.511 332.738ZM317.066 335.466L318.889 336.376C319.344 336.83 320.255 336.83 320.711 336.376C321.166 335.921 321.166 335.466 320.711 335.466L318.889 334.557C318.433 334.102 317.522 334.102 317.066 334.557C316.611 334.557 316.611 335.011 317.066 335.466ZM256.935 305.456L258.302 306.366C258.757 306.82 259.668 306.82 260.124 306.366L261.49 305.456C261.946 305.002 261.946 304.547 261.49 304.092L260.124 303.183C259.668 302.728 258.757 302.728 258.302 303.183L256.935 304.547C256.479 304.547 256.479 305.002 256.935 305.456ZM265.135 309.094L266.501 308.184C266.957 307.73 266.957 307.275 266.501 306.82L265.135 305.911C264.679 305.456 263.768 305.456 263.313 305.911L261.49 306.82C261.035 307.275 261.035 307.73 261.49 308.184L262.857 309.094C263.768 309.094 264.679 309.094 265.135 309.094ZM266.046 310.458L267.412 311.367C267.868 311.822 268.779 311.822 269.235 311.367L270.601 310.458C271.057 310.003 271.057 309.549 270.601 309.094L269.235 308.184C268.779 307.73 267.868 307.73 267.412 308.184L266.046 309.549C265.59 310.003 265.59 310.458 266.046 310.458ZM270.601 313.186L271.968 314.095C272.423 314.55 273.334 314.55 273.79 314.095L275.157 313.186C275.612 312.731 275.612 312.277 275.157 311.822L273.79 310.913C273.334 310.458 272.423 310.458 271.968 310.913L270.601 312.277C270.146 312.277 270.146 312.731 270.601 313.186ZM280.168 314.55L278.801 313.641C278.345 313.186 277.434 313.186 276.979 313.641L275.157 314.55C274.701 315.005 274.701 315.46 275.157 315.914L276.523 316.824C276.979 317.278 277.89 317.278 278.345 316.824L279.712 315.914C280.623 315.46 280.623 315.005 280.168 314.55ZM284.723 317.278L283.356 316.369C282.901 315.914 281.99 315.914 281.534 316.369L279.712 317.278C279.257 317.733 279.257 318.188 279.712 318.642L281.079 319.552C281.534 320.007 282.445 320.007 282.901 319.552L284.267 318.642C285.179 318.188 285.179 317.733 284.723 317.278ZM289.278 320.007L287.912 319.097C287.456 318.642 286.545 318.642 286.09 319.097L284.267 320.007C283.812 320.461 283.812 320.916 284.267 321.371L285.634 322.28C286.09 322.735 287.001 322.735 287.456 322.28L288.823 321.371C289.734 320.916 289.734 320.007 289.278 320.007ZM293.834 322.28L292.467 321.371C292.012 320.916 291.101 320.916 290.645 321.371L289.278 322.28C288.823 322.735 288.823 323.189 289.278 323.644L290.645 324.553C291.101 325.008 292.012 325.008 292.467 324.553L293.834 323.644C294.289 323.189 294.289 322.735 293.834 322.28ZM298.389 325.008L297.023 324.099C296.567 323.644 295.656 323.644 295.201 324.099L293.834 325.008C293.378 325.463 293.378 325.918 293.834 326.372L295.201 327.282C295.656 327.736 296.567 327.736 297.023 327.282L298.389 326.372C298.845 325.918 298.845 325.463 298.389 325.008ZM302.489 327.736L301.123 326.827C300.667 326.372 299.756 326.372 299.3 326.827L297.478 327.736C297.023 328.191 297.023 328.646 297.478 329.1L298.845 330.01C299.3 330.465 300.211 330.465 300.667 330.01L302.034 329.1C303.4 328.646 303.4 328.191 302.489 327.736ZM302.034 331.374L303.4 332.283C303.856 332.738 304.767 332.738 305.222 332.283L306.589 331.374C307.045 330.919 307.045 330.465 306.589 330.01L305.222 329.1C304.767 328.646 303.856 328.646 303.4 329.1L302.034 330.01C301.578 330.465 301.578 330.919 302.034 331.374ZM311.6 332.738L310.233 331.829C309.778 331.374 308.867 331.374 308.411 331.829L307.045 332.738C306.589 333.193 306.589 333.647 307.045 334.102L308.411 335.011C308.867 335.466 309.778 335.466 310.233 335.011L311.6 334.102C312.056 333.647 312.056 333.193 311.6 332.738ZM318.433 336.83L314.789 334.557C314.333 334.102 313.422 334.102 312.967 334.557L311.6 335.466C311.144 335.921 311.144 336.376 311.6 336.83L315.244 339.104C315.7 339.558 316.611 339.558 317.066 339.104L318.433 338.194C318.889 337.74 318.889 336.83 318.433 336.83ZM252.835 307.73L256.479 310.003C256.935 310.458 257.846 310.458 258.302 310.003L259.668 309.094C260.124 308.639 260.124 308.184 259.668 307.73L256.024 305.456C255.568 305.002 254.657 305.002 254.202 305.456L252.835 306.366C252.38 306.82 252.38 307.73 252.835 307.73ZM259.213 311.822L260.579 312.731C261.035 313.186 261.946 313.186 262.401 312.731L263.768 311.822C264.224 311.367 264.224 310.913 263.768 310.458L262.857 309.549C262.401 309.094 261.49 309.094 261.035 309.549L259.668 310.458C258.757 310.913 258.757 311.367 259.213 311.822ZM265.59 315.005C266.046 315.46 266.957 315.46 267.412 315.005L268.779 314.095C269.235 313.641 269.235 313.186 268.779 312.731L267.412 311.822C266.957 311.367 266.046 311.367 265.59 311.822L264.224 312.731C263.768 313.186 263.768 313.641 264.224 314.095L265.59 315.005ZM270.146 317.733C270.601 318.188 271.512 318.188 271.968 317.733L273.334 316.824C273.79 316.369 273.79 315.914 273.334 315.46L271.968 314.55C271.512 314.095 270.601 314.095 270.146 314.55L268.779 315.46C268.324 315.914 268.324 316.369 268.779 316.824L270.146 317.733ZM274.246 317.278L272.879 318.188C272.423 318.642 272.423 319.097 272.879 319.552L274.246 320.461C274.701 320.916 275.612 320.916 276.068 320.461L277.434 319.552C277.89 319.097 277.89 318.642 277.434 318.188L276.068 317.278C276.068 317.278 275.157 317.278 274.246 317.278ZM279.257 320.007L277.434 320.916C276.979 321.371 276.979 321.825 277.434 321.825L279.257 322.735C279.712 323.189 280.623 323.189 281.079 322.735L282.901 321.825C283.356 321.371 283.356 320.916 282.901 320.916L281.079 320.007C280.168 319.552 279.712 319.552 279.257 320.007ZM283.356 322.735L281.534 323.644C281.079 324.099 281.079 324.553 281.534 324.553L283.356 325.463C283.812 325.918 284.723 325.918 285.179 325.463L287.001 324.553C287.456 324.099 287.456 323.644 287.001 323.644L285.179 322.735C284.723 322.28 284.267 322.28 283.356 322.735ZM287.912 325.008L286.09 325.918C285.634 326.372 285.634 326.827 286.09 326.827L287.912 327.736C288.367 328.191 289.278 328.191 289.734 327.736L291.556 326.827C292.012 326.372 292.012 325.918 291.556 325.918L289.734 325.008C289.278 325.008 288.367 325.008 287.912 325.008ZM292.467 327.736L290.645 328.646C290.19 329.1 290.19 329.555 290.645 329.555L292.467 330.465C292.923 330.919 293.834 330.919 294.289 330.465L296.112 329.555C296.567 329.1 296.567 328.646 296.112 328.646L294.289 327.736C293.834 327.282 292.923 327.282 292.467 327.736ZM297.023 330.465L295.201 331.374C294.745 331.829 294.745 332.283 295.201 332.283L297.023 333.193C297.478 333.647 298.389 333.647 298.845 333.193L300.667 332.283C301.123 331.829 301.123 331.374 300.667 331.374L298.845 330.465C298.389 330.01 297.478 330.01 297.023 330.465ZM303.4 335.921L305.222 335.011C305.678 334.557 305.678 334.102 305.222 334.102L303.4 333.193C302.945 332.738 302.034 332.738 301.578 333.193L299.756 334.102C299.3 334.557 299.3 335.011 299.756 335.011L301.578 335.921C302.034 336.376 302.945 336.376 303.4 335.921ZM307.956 338.649L309.778 337.74C310.233 337.285 310.233 336.83 309.778 336.83L307.956 335.921C307.5 335.466 306.589 335.466 306.134 335.921L304.311 336.83C303.856 337.285 303.856 337.74 304.311 337.74L306.134 338.649C306.589 338.649 307.5 338.649 307.956 338.649ZM314.333 339.104L312.511 338.194C312.056 337.74 311.144 337.74 310.689 338.194L308.867 339.104C308.411 339.558 308.411 340.013 308.867 340.013L310.689 340.923C311.144 341.377 312.056 341.377 312.511 340.923L314.333 340.013C314.789 340.013 314.789 339.558 314.333 339.104ZM248.735 310.003L254.202 313.186C254.657 313.641 255.568 313.641 256.024 313.186L257.846 312.277C258.302 311.822 258.302 311.367 257.846 311.367L252.38 308.184C251.924 307.73 251.013 307.73 250.557 308.184L248.735 309.094C248.28 309.549 248.28 310.003 248.735 310.003ZM256.935 315.005L258.757 315.914C259.213 316.369 260.124 316.369 260.579 315.914L262.401 315.005C262.857 314.55 262.857 314.095 262.401 314.095L260.579 313.186C260.124 312.731 259.213 312.731 258.757 313.186L256.935 314.095C256.479 314.095 256.479 314.55 256.935 315.005ZM261.49 317.733L263.313 318.642C263.768 319.097 264.679 319.097 265.135 318.642L266.957 317.733C267.412 317.278 267.412 316.824 266.957 316.824L265.135 315.914C264.679 315.46 263.768 315.46 263.313 315.914L261.49 316.824C261.035 316.824 261.035 317.278 261.49 317.733ZM266.046 320.461L267.868 321.371C268.324 321.825 269.235 321.825 269.69 321.371L271.512 320.461C271.968 320.007 271.968 319.552 271.512 319.552L269.69 318.642C269.235 318.188 268.324 318.188 267.868 318.642L266.046 319.097C265.59 319.552 265.59 320.007 266.046 320.461ZM274.246 323.644L276.068 322.735C276.523 322.28 276.523 321.825 276.068 321.825L274.246 320.916C273.79 320.461 272.879 320.461 272.423 320.916L270.601 321.825C270.146 322.28 270.146 322.735 270.601 322.735L272.423 323.644C272.879 324.099 273.79 324.099 274.246 323.644ZM278.801 326.372L280.623 325.463C281.079 325.008 281.079 324.553 280.623 324.553L278.345 323.189C277.89 322.735 276.979 322.735 276.523 323.189L275.157 324.553C274.701 325.008 274.701 325.463 275.157 325.463L276.979 326.372C277.434 326.827 277.89 326.827 278.801 326.372ZM282.901 329.1L284.723 328.191C285.179 327.736 285.179 327.282 284.723 327.282L282.901 326.372C282.445 325.918 281.534 325.918 281.079 326.372L279.712 326.827C279.257 327.282 279.257 327.736 279.712 327.736L281.534 328.646C281.99 329.555 282.445 329.555 282.901 329.1ZM287.456 331.829L289.278 330.919C289.734 330.464 289.734 330.01 289.278 330.01L287.456 329.1C287.001 328.646 286.09 328.646 285.634 329.1L284.267 329.555C283.812 330.01 283.812 330.465 284.267 330.465L286.09 331.374C286.09 331.829 287.001 331.829 287.456 331.829ZM292.012 334.102L293.834 333.193C294.289 332.738 294.289 332.283 293.834 332.283L292.012 331.374C291.556 330.919 290.645 330.919 290.19 331.374L288.367 332.283C287.912 332.738 287.912 333.193 288.367 333.193L290.19 334.102C290.645 334.557 291.556 334.557 292.012 334.102ZM296.567 336.83L298.389 335.921C298.845 335.466 298.845 335.011 298.389 335.011L296.567 334.102C296.112 333.647 295.2 333.647 294.745 334.102L292.923 335.011C292.467 335.466 292.467 335.921 292.923 335.921L294.745 336.83C295.2 337.285 296.112 337.285 296.567 336.83ZM297.478 338.649L299.3 339.558C299.756 340.013 300.667 340.013 301.123 339.558L302.945 338.649C303.4 338.194 303.4 337.74 302.945 337.74L301.123 336.83C300.667 336.376 299.756 336.376 299.3 336.83L297.478 337.74C297.023 337.74 297.023 338.194 297.478 338.649ZM310.233 341.377L305.678 338.649C305.222 338.194 304.311 338.194 303.856 338.649L302.034 339.558C301.578 340.013 301.578 340.468 302.034 340.468L306.589 343.196C307.045 343.651 307.956 343.651 308.411 343.196L310.233 342.287C310.689 342.287 310.689 341.832 310.233 341.377ZM244.635 312.731L252.835 317.278C253.291 317.733 254.202 317.733 254.657 317.278L256.024 316.369C256.479 315.914 256.479 315.46 256.024 315.005L247.824 310.458C247.369 310.003 246.458 310.003 246.002 310.458L244.635 311.367C243.724 311.822 243.724 312.277 244.635 312.731ZM255.568 319.097L256.935 320.007C257.391 320.461 258.302 320.461 258.757 320.007L260.124 319.097C260.579 318.642 260.579 318.188 260.124 317.733L258.757 316.824C258.302 316.369 257.391 316.369 256.935 316.824L255.568 317.733C255.113 318.188 255.113 318.642 255.568 319.097ZM260.124 321.825L261.49 322.735C261.946 323.189 262.857 323.189 263.313 322.735L264.679 321.825C265.135 321.371 265.135 320.916 264.679 320.461L263.313 319.552C262.857 319.097 261.946 319.097 261.49 319.552L260.124 320.461C259.213 320.916 259.213 321.371 260.124 321.825ZM264.679 324.099L266.046 325.008C266.501 325.463 267.412 325.463 267.868 325.008L269.235 324.099C269.69 323.644 269.69 323.189 269.235 322.735L267.868 321.825C267.412 321.371 266.501 321.371 266.046 321.825L264.679 323.189C263.768 323.644 263.768 324.099 264.679 324.099ZM268.779 326.827L270.601 327.736C271.057 328.191 271.968 328.191 272.423 327.736L273.79 326.827C274.246 326.372 274.246 325.918 273.79 325.463L272.423 324.553C271.968 324.099 271.057 324.099 270.601 324.553L269.235 325.463C268.324 325.918 268.324 326.372 268.779 326.827ZM273.334 329.555L274.701 330.465C275.157 330.919 276.068 330.919 276.523 330.465L277.89 329.555C278.345 329.1 278.345 328.646 277.89 328.191L276.523 327.282C276.068 326.827 275.157 326.827 274.701 327.282L273.334 328.191C272.879 328.646 272.879 329.1 273.334 329.555ZM277.89 332.283L279.257 333.193C279.712 333.647 280.623 333.647 281.079 333.193L282.445 332.283C282.901 331.829 282.901 331.374 282.445 330.919L281.079 330.01C280.623 329.555 279.712 329.555 279.257 330.01L277.89 330.919C277.434 331.374 277.434 331.829 277.89 332.283ZM282.445 334.557L283.812 335.466C284.267 335.921 285.179 335.921 285.634 335.466L287.001 334.557C287.456 334.102 287.456 333.647 287.001 333.193L285.634 332.283C285.179 331.829 284.267 331.829 283.812 332.283L282.445 333.193C281.99 333.647 281.99 334.557 282.445 334.557ZM287.001 337.285L288.367 338.194C288.823 338.649 289.734 338.649 290.19 338.194L291.556 337.285C292.012 336.83 292.012 336.376 291.556 335.921L290.19 335.011C289.734 334.557 288.823 334.557 288.367 335.011L287.001 335.921C286.545 336.376 286.545 336.83 287.001 337.285ZM291.556 340.013L292.923 340.923C293.378 341.377 294.289 341.377 294.745 340.923L296.112 340.013C296.567 339.558 296.567 339.104 296.112 338.649L294.745 337.74C294.289 337.285 293.378 337.285 292.923 337.74L291.556 338.649C291.101 339.104 291.101 339.558 291.556 340.013ZM296.112 342.287L297.478 343.196C297.934 343.651 298.845 343.651 299.3 343.196L300.667 342.287C301.123 341.832 301.123 341.377 300.667 340.923L299.3 340.013C298.845 339.558 297.934 339.558 297.478 340.013L296.112 341.377C295.656 341.832 295.656 342.287 296.112 342.287ZM305.678 344.105L304.311 343.196C303.856 342.741 302.945 342.741 302.489 343.196L301.123 344.105C300.667 344.56 300.667 345.015 301.123 345.469L302.489 346.379C302.945 346.834 303.856 346.834 304.311 346.379L305.678 345.469C306.133 345.015 306.133 344.105 305.678 344.105ZM247.369 315.005L243.724 313.186C243.269 312.731 242.358 312.731 241.902 313.186L240.08 314.095C239.624 314.55 239.624 315.005 240.08 315.46L243.724 317.278C244.18 317.733 245.091 317.733 245.546 317.278L246.913 316.369C247.824 315.914 247.824 315.46 247.369 315.005ZM251.924 317.733L250.557 316.824C250.102 316.369 249.191 316.369 248.735 316.824L247.369 317.733C246.913 318.188 246.913 318.642 247.369 319.097L248.735 320.007C249.191 320.461 250.102 320.461 250.557 320.007L251.924 319.097C252.38 318.642 252.38 318.188 251.924 317.733ZM256.479 320.461L255.113 319.552C254.657 319.097 253.746 319.097 253.291 319.552L251.924 320.461C251.468 320.916 251.468 321.371 251.924 321.825L253.291 322.735C253.746 323.189 254.657 323.189 255.113 322.735L256.479 321.825C256.935 321.371 256.935 320.461 256.479 320.461ZM287.912 338.649L259.213 322.28C258.757 321.825 257.846 321.825 257.391 322.28L256.024 323.189C255.568 323.644 255.568 324.099 256.024 324.553L284.723 340.923C285.179 341.377 286.09 341.377 286.545 340.923L287.912 340.013C288.367 339.558 288.367 338.649 287.912 338.649ZM292.467 340.923L291.101 340.013C290.645 339.558 289.734 339.558 289.278 340.013L287.912 340.923C287.456 341.377 287.456 341.832 287.912 342.287L289.278 343.196C289.734 343.651 290.645 343.651 291.101 343.196L292.467 342.287C292.923 341.832 292.923 341.377 292.467 340.923ZM297.023 343.651L295.656 342.741C295.2 342.287 294.289 342.287 293.834 342.741L292.467 343.651C292.012 344.105 292.012 344.56 292.467 345.015L293.378 345.924C293.834 346.379 294.745 346.379 295.201 345.924L296.567 345.015C297.478 344.56 297.478 344.105 297.023 343.651ZM301.578 346.379L300.211 345.469C299.756 345.015 298.845 345.015 298.389 345.469L297.023 346.379C296.567 346.834 296.567 347.288 297.023 347.743L298.389 348.652C298.845 349.107 299.756 349.107 300.211 348.652L301.578 347.743C302.034 347.288 302.034 346.834 301.578 346.379Z" fill="url(#paint45_linear_522_9966)"/>
<path d="M304.768 258.168C304.768 258.168 300.668 264.079 299.302 269.081C297.935 274.082 294.746 293.179 294.291 296.362C294.291 299.545 292.013 303.183 292.013 303.183C292.013 303.183 290.646 303.637 289.735 304.092C289.28 304.547 288.824 305.456 288.824 305.456C288.824 305.456 286.547 305.001 286.091 305.911C285.18 306.82 284.724 308.184 284.724 308.184C284.724 308.184 282.902 307.73 281.991 309.094C281.08 310.458 281.08 313.641 281.536 315.459C281.991 317.278 283.358 320.006 284.269 320.916C284.724 321.825 286.547 320.916 286.547 320.916C286.547 320.916 287.913 322.28 288.824 321.371C289.735 320.916 290.191 319.552 290.191 319.552C290.191 319.552 291.102 321.825 292.924 321.371C294.746 321.371 294.291 320.006 293.835 318.642C293.38 317.278 293.38 315.914 293.38 315.914H295.202C295.202 315.914 295.657 318.642 297.48 318.642C299.302 318.642 298.846 314.55 298.846 314.55C298.846 314.55 303.402 312.731 304.768 310.913C306.135 309.094 306.59 307.275 305.679 305.456C304.768 303.637 303.402 303.183 303.402 303.183C303.402 303.183 307.957 294.089 310.69 287.268C313.423 280.903 313.879 273.627 313.879 273.627L318.434 264.534L304.768 258.168Z" fill="url(#paint46_radial_522_9966)"/>
<path d="M375.832 277.265C375.832 277.265 378.565 288.632 378.109 289.542C377.654 290.451 368.999 295.453 363.988 300.909C358.977 306.366 338.933 327.736 336.655 327.736C333.922 327.282 328.911 323.189 322.989 324.553C317.067 325.918 305.223 337.285 305.223 338.194C305.678 339.104 306.589 339.558 308.411 338.194C310.234 337.285 312.967 335.466 312.967 335.466C312.967 335.466 308.411 340.013 307.5 341.377C306.134 342.741 306.134 344.105 308.867 343.196C311.6 342.287 316.156 338.649 316.156 338.649C316.156 338.649 310.689 342.741 311.145 343.651C311.6 344.56 313.878 344.56 316.611 342.287C319.8 340.013 326.178 336.376 326.633 336.83C327.089 337.285 324.811 339.104 323.444 340.013C322.078 340.922 318.889 344.105 319.344 345.015C320.256 345.924 322.533 345.015 323.9 344.105C325.266 342.741 328.911 340.468 329.366 340.468C330.277 340.013 333.466 340.468 335.744 340.013C338.022 340.013 341.666 339.104 343.033 337.74C344.399 335.921 348.955 332.738 352.143 330.01C354.877 327.736 378.109 310.458 384.031 304.547C389.953 298.636 392.687 297.726 392.687 291.361C392.687 284.995 390.865 272.263 390.865 272.263L375.832 277.265Z" fill="url(#paint47_radial_522_9966)"/>
<path d="M362.621 220.428C358.977 224.52 366.721 246.346 368.543 254.076C370.365 261.805 376.287 277.265 376.287 277.265L392.687 272.718C392.687 272.718 390.409 252.257 390.409 240.889C390.409 229.522 384.487 222.247 377.654 219.519C369.454 216.336 368.088 214.517 362.621 220.428Z" fill="white"/>
<path d="M365.81 181.324C375.377 185.417 387.676 206.787 379.932 222.702C374.01 234.978 367.177 231.795 363.077 244.527C360.344 253.166 364.443 268.171 357.155 269.99C349.411 272.263 335.744 249.074 347.133 231.341C358.521 213.608 358.066 189.509 358.066 189.509L365.81 181.324Z" fill="url(#paint48_linear_522_9966)"/>
<path d="M328.001 165.41C322.079 169.957 320.257 183.598 322.535 194.965C324.813 206.333 326.635 213.153 332.557 214.517C340.757 216.336 353.967 210.425 356.701 205.878C361.712 197.693 364.9 188.599 363.989 178.141C363.078 167.683 348.501 149.041 328.001 165.41Z" fill="url(#paint49_radial_522_9966)"/>
<path d="M365.81 197.239C365.81 197.239 367.176 188.599 361.71 190.418C361.254 190.418 361.254 190.873 360.799 190.873C358.066 192.237 356.243 189.964 353.966 188.145C347.588 183.143 338.477 189.054 323.9 188.599C307.045 188.145 323.444 145.858 354.877 158.135C378.109 167.229 365.81 197.239 365.81 197.239Z" fill="url(#paint50_linear_522_9966)"/>
<path d="M290.19 360.474L220.036 320.006C217.303 318.642 215.025 314.095 215.025 310.458V255.44C215.025 251.802 217.303 249.983 220.036 251.802L290.19 292.27C292.923 293.634 295.201 298.181 295.201 301.819V356.837C295.201 360.474 292.923 361.838 290.19 360.474Z" fill="url(#paint51_linear_522_9966)"/>
<path d="M290.556 291.361L220.403 250.893C219.492 250.438 218.58 249.983 217.669 250.438L216.303 251.347C217.214 250.893 218.125 250.893 219.492 251.802L289.645 292.27C292.378 293.634 294.656 298.181 294.656 301.819V356.837C294.656 359.11 293.745 360.474 292.378 360.929H292.834C292.834 360.929 294.2 360.02 294.656 360.02C295.567 359.565 296.023 358.201 296.023 356.382V300.909C295.567 297.272 293.289 293.179 290.556 291.361Z" fill="url(#paint52_linear_522_9966)"/>
<path d="M336.199 212.244V210.425L343.943 209.97C347.132 209.97 349.865 208.606 351.688 206.333L358.521 198.603L359.887 199.967L353.054 207.697C350.777 210.425 347.588 211.789 343.943 211.789L336.199 212.244Z" fill="url(#paint53_linear_522_9966)"/>
<path d="M338.478 211.334C338.478 212.244 337.111 212.698 335.745 212.698C334.378 212.698 333.467 211.789 333.467 210.88C333.467 209.97 334.833 209.515 336.2 209.515C337.567 209.515 338.933 210.425 338.478 211.334Z" fill="url(#paint54_linear_522_9966)"/>
<path d="M351.234 196.784C351.234 198.603 351.69 199.967 353.057 200.876L355.334 202.24C356.245 202.695 355.79 201.331 357.612 200.422C361.256 198.603 363.99 193.601 363.99 189.509C363.99 187.69 365.812 187.69 364.901 186.781L362.167 185.417C361.256 184.962 359.434 184.962 357.612 185.871C353.968 188.145 351.234 192.692 351.234 196.784Z" fill="url(#paint55_linear_522_9966)"/>
<path d="M353.512 198.148C353.512 202.24 356.245 203.604 359.889 201.786C363.534 199.967 366.267 194.965 366.267 190.873C366.267 186.781 363.534 185.417 359.889 187.235C356.701 189.054 353.512 194.056 353.512 198.148Z" fill="url(#paint56_linear_522_9966)"/>
<path d="M356.701 197.693C356.701 199.058 357.157 199.967 358.068 200.422L358.523 200.876C359.434 201.331 358.979 200.422 359.89 199.512C362.168 198.148 363.99 194.965 363.99 192.237C363.99 190.873 365.356 190.873 364.445 190.418L363.99 189.964C363.079 189.509 362.168 189.509 361.257 190.418C358.523 191.782 356.701 194.965 356.701 197.693Z" fill="url(#paint57_linear_522_9966)"/>
<path d="M357.156 197.693C357.156 200.422 358.978 201.331 361.256 199.967C363.534 198.603 365.356 195.42 365.356 192.692C365.356 189.964 363.534 189.054 361.256 190.418C358.978 191.782 357.156 194.965 357.156 197.693Z" fill="url(#paint58_linear_522_9966)"/>
<path d="M358.525 197.239C358.525 199.058 359.892 199.967 361.714 199.058C363.536 198.148 364.903 195.875 364.903 194.056C364.903 192.237 363.536 191.328 361.714 192.237C359.892 193.147 358.525 195.42 358.525 197.239Z" fill="url(#paint59_linear_522_9966)"/>
<path d="M345.767 159.044C339.845 155.861 334.834 154.497 331.645 155.861L327.545 158.135C330.734 156.316 336.2 157.68 342.122 161.318C352.144 167.229 360.799 177.232 360.799 188.599V192.237L364.899 189.964V186.326C364.444 174.959 356.244 164.955 345.767 159.044Z" fill="url(#paint60_linear_522_9966)"/>
<path d="M341.667 161.318C336.2 158.135 330.734 156.771 327.545 158.135C331.189 156.771 336.2 158.135 341.667 161.318C351.689 167.229 359.888 177.232 359.888 189.054V192.692H360.344V189.054C360.344 177.232 352.144 167.229 341.667 161.318Z" fill="url(#paint61_linear_522_9966)"/>
<path d="M162.399 89.4758L28.9257 12.1776C12.9817 3.08367 0.226562 12.6323 0.226562 34.003V54.919C0.226562 75.835 12.9817 100.389 28.9257 109.482L85.4129 143.585L107.279 208.151L129.145 169.048L161.944 186.781C177.888 195.875 190.643 186.326 190.643 164.955V144.039C191.099 123.123 178.343 99.0244 162.399 89.4758Z" fill="#78FFBE"/>
<path d="M138.254 174.049L129.143 169.048L107.277 208.151L125.043 198.148L138.254 174.049Z" fill="#55E5B1"/>
<path d="M176.978 80.8366L43.5046 3.53837C36.6714 -0.553895 30.2938 -1.00859 25.7384 1.71958L10.25 10.8135C15.261 7.63063 22.0941 8.08532 29.3828 12.1776L162.857 89.4758C178.8 98.5697 191.556 123.123 191.556 144.039V164.955C191.556 175.413 188.367 182.688 183.356 186.781L192.011 180.87C199.3 176.777 206.133 169.957 206.133 156.316V135.4C205.677 114.484 192.922 90.3852 176.978 80.8366Z" fill="#55E5B1"/>
<path d="M130.054 89.9305L119.576 84.4742V90.3852L130.054 96.2963V89.9305Z" fill="white"/>
<path d="M117.3 121.305L76.3008 98.5698V104.936L117.3 127.216V121.305Z" fill="white"/>
<path d="M133.698 117.667L113.654 106.3V112.665L133.698 124.033V117.667Z" fill="white"/>
<path d="M149.645 114.029L124.59 100.389V106.3L149.645 120.395V114.029Z" fill="white"/>
<path d="M155.564 104.481L136.432 93.5681V99.9339L155.564 110.847V104.481Z" fill="white"/>
<path d="M107.733 103.117L76.3008 85.8383V92.204L107.733 109.028V103.117Z" fill="white"/>
<path d="M76.3008 79.0179L100.444 92.6587V86.293L76.3008 73.1068V79.0179Z" fill="white"/>
<path d="M98.623 130.853L129.144 147.677V141.766L98.623 124.942V130.853Z" fill="white"/>
<path d="M123.223 130.853L157.844 150.86V144.494L123.223 124.942V130.853Z" fill="white"/>
<path d="M135.521 151.314L145.088 157.225V150.86L135.521 144.949V151.314Z" fill="white"/>
<path d="M140.076 121.305V127.67L171.509 145.403V139.492L140.076 121.305Z" fill="white"/>
<path d="M76.3008 118.576L92.2447 127.67V121.305L76.3008 112.211V118.576Z" fill="white"/>
<path d="M106.367 95.8416L118.211 102.662V96.751L106.367 89.9306V95.8416Z" fill="white"/>
<path d="M76.3008 66.2864L113.655 86.7477V80.8367L76.3008 59.9207V66.2864Z" fill="white"/>
<path d="M37.5822 81.2913C37.1266 80.8366 37.1266 80.3819 37.1266 79.9272C37.1266 78.5631 37.1266 77.6537 37.1266 77.199C37.5822 74.4709 38.0377 72.6521 39.4043 71.288C40.771 69.9239 42.5931 68.5598 44.8708 67.1957C46.693 66.2863 48.0596 65.377 48.9707 64.4676C49.8818 63.5582 50.3373 62.6488 50.3373 61.2847C50.3373 59.0112 49.8818 56.7377 48.0596 54.4643C46.693 52.1908 44.4153 50.372 42.1376 49.0079C37.1266 46.2797 33.9378 47.1891 33.0268 52.6455C32.5712 54.0096 32.1157 54.0096 30.749 53.5549L23.9159 49.4626C23.4604 49.0079 23.0048 48.5532 22.5493 48.0985C22.0938 47.6438 22.0938 46.7344 22.0938 46.2797C22.0938 43.0969 23.0048 40.3687 24.827 38.5499C26.6492 36.7311 28.9269 35.8217 32.1157 35.8217C35.3045 35.8217 38.9488 37.1858 43.0487 39.4593C47.6041 41.7328 50.7929 44.9157 53.5261 48.0985C56.2594 51.2814 58.5371 54.4643 59.4482 57.6471C60.8148 60.83 61.2704 63.5582 61.2704 66.2863C61.2704 69.4692 60.8148 71.7427 59.4482 73.1068C58.0816 74.4709 56.7149 76.2896 54.4372 77.6537C52.6151 78.5631 51.2484 79.9272 50.3373 80.8366C49.4263 81.746 48.9707 83.1101 48.5152 84.4742C48.5152 85.8383 48.0596 86.7476 48.0596 87.2023C48.5152 86.7476 48.0596 86.7476 47.6041 87.2023C47.1486 87.2023 46.693 87.2023 46.2375 86.7476L38.4933 82.2007C38.0377 82.2007 37.5822 81.746 37.5822 81.2913ZM37.1266 97.6603C36.6711 97.2056 36.6711 96.2962 36.6711 95.8416V87.657C36.6711 87.2023 36.6711 86.7476 37.1266 86.2929C37.5822 86.2929 38.0377 86.2929 38.4933 86.2929L46.2375 90.8399C46.693 91.2946 47.1486 91.7493 47.6041 92.204C48.0596 92.6587 48.0596 93.5681 48.0596 94.0228V102.207C48.0596 102.662 48.0596 103.117 47.6041 103.571C47.1486 103.571 46.693 103.571 46.2375 103.571L38.4933 99.0244C38.0377 99.0244 37.5822 98.5697 37.1266 97.6603Z" fill="white"/>
<defs>
<linearGradient id="paint0_linear_522_9966" x1="324.806" y1="164.461" x2="351.493" y2="155.715" gradientUnits="userSpaceOnUse">
<stop stop-color="#311B61"/>
<stop offset="0.2031" stop-color="#290F52"/>
<stop offset="0.4949" stop-color="#200041"/>
<stop offset="1" stop-color="#0F001F"/>
</linearGradient>
<linearGradient id="paint1_linear_522_9966" x1="299.422" y1="452.696" x2="293.825" y2="445.183" gradientUnits="userSpaceOnUse">
<stop stop-color="#25054D"/>
<stop offset="0.5" stop-color="#45108A"/>
<stop offset="1" stop-color="#25054D"/>
</linearGradient>
<linearGradient id="paint2_linear_522_9966" x1="291.44" y1="450.215" x2="297.702" y2="450.215" gradientUnits="userSpaceOnUse">
<stop stop-color="#25054D"/>
<stop offset="0.5833" stop-color="#2F085F"/>
<stop offset="1" stop-color="#370B6F"/>
</linearGradient>
<linearGradient id="paint3_linear_522_9966" x1="300.03" y1="451.639" x2="294.275" y2="443.913" gradientUnits="userSpaceOnUse">
<stop stop-color="#25054D"/>
<stop offset="0.5" stop-color="#45108A"/>
<stop offset="1" stop-color="#25054D"/>
</linearGradient>
<radialGradient id="paint4_radial_522_9966" cx="0" cy="0" r="1" gradientUnits="userSpaceOnUse" gradientTransform="translate(295.217 450.109) scale(3.3824 3.37611)">
<stop stop-color="white"/>
<stop offset="1"/>
</radialGradient>
<linearGradient id="paint5_linear_522_9966" x1="366.446" y1="459.811" x2="360.849" y2="452.298" gradientUnits="userSpaceOnUse">
<stop stop-color="#25054D"/>
<stop offset="0.5" stop-color="#45108A"/>
<stop offset="1" stop-color="#25054D"/>
</linearGradient>
<linearGradient id="paint6_linear_522_9966" x1="358.465" y1="457.33" x2="364.726" y2="457.33" gradientUnits="userSpaceOnUse">
<stop stop-color="#25054D"/>
<stop offset="0.5833" stop-color="#2F085F"/>
<stop offset="1" stop-color="#370B6F"/>
</linearGradient>
<linearGradient id="paint7_linear_522_9966" x1="367.075" y1="458.739" x2="361.318" y2="451.012" gradientUnits="userSpaceOnUse">
<stop stop-color="#25054D"/>
<stop offset="0.5" stop-color="#45108A"/>
<stop offset="1" stop-color="#25054D"/>
</linearGradient>
<linearGradient id="paint8_linear_522_9966" x1="396.522" y1="422.606" x2="390.926" y2="415.093" gradientUnits="userSpaceOnUse">
<stop stop-color="#25054D"/>
<stop offset="0.5" stop-color="#45108A"/>
<stop offset="1" stop-color="#25054D"/>
</linearGradient>
<linearGradient id="paint9_linear_522_9966" x1="388.541" y1="420.125" x2="394.802" y2="420.125" gradientUnits="userSpaceOnUse">
<stop stop-color="#25054D"/>
<stop offset="0.5833" stop-color="#2F085F"/>
<stop offset="1" stop-color="#370B6F"/>
</linearGradient>
<linearGradient id="paint10_linear_522_9966" x1="397.131" y1="421.549" x2="391.376" y2="413.823" gradientUnits="userSpaceOnUse">
<stop stop-color="#25054D"/>
<stop offset="0.5" stop-color="#45108A"/>
<stop offset="1" stop-color="#25054D"/>
</linearGradient>
<linearGradient id="paint11_linear_522_9966" x1="349.056" y1="389.989" x2="343.459" y2="382.476" gradientUnits="userSpaceOnUse">
<stop stop-color="#25054D"/>
<stop offset="0.5" stop-color="#45108A"/>
<stop offset="1" stop-color="#25054D"/>
</linearGradient>
<linearGradient id="paint12_linear_522_9966" x1="341.076" y1="387.508" x2="347.337" y2="387.508" gradientUnits="userSpaceOnUse">
<stop stop-color="#25054D"/>
<stop offset="0.5833" stop-color="#2F085F"/>
<stop offset="1" stop-color="#370B6F"/>
</linearGradient>
<linearGradient id="paint13_linear_522_9966" x1="349.685" y1="388.917" x2="343.929" y2="381.19" gradientUnits="userSpaceOnUse">
<stop stop-color="#25054D"/>
<stop offset="0.5" stop-color="#45108A"/>
<stop offset="1" stop-color="#25054D"/>
</linearGradient>
<radialGradient id="paint14_radial_522_9966" cx="0" cy="0" r="1" gradientUnits="userSpaceOnUse" gradientTransform="translate(344.851 387.403) scale(3.38241 3.37612)">
<stop stop-color="white"/>
<stop offset="1"/>
</radialGradient>
<linearGradient id="paint15_linear_522_9966" x1="289.597" y1="412.133" x2="284.001" y2="404.619" gradientUnits="userSpaceOnUse">
<stop stop-color="#25054D"/>
<stop offset="0.5" stop-color="#45108A"/>
<stop offset="1" stop-color="#25054D"/>
</linearGradient>
<linearGradient id="paint16_linear_522_9966" x1="281.616" y1="409.652" x2="287.878" y2="409.652" gradientUnits="userSpaceOnUse">
<stop stop-color="#25054D"/>
<stop offset="0.5833" stop-color="#2F085F"/>
<stop offset="1" stop-color="#370B6F"/>
</linearGradient>
<linearGradient id="paint17_linear_522_9966" x1="290.226" y1="411.061" x2="284.47" y2="403.334" gradientUnits="userSpaceOnUse">
<stop stop-color="#25054D"/>
<stop offset="0.5" stop-color="#45108A"/>
<stop offset="1" stop-color="#25054D"/>
</linearGradient>
<radialGradient id="paint18_radial_522_9966" cx="0" cy="0" r="1" gradientUnits="userSpaceOnUse" gradientTransform="translate(285.391 409.546) scale(3.3824 3.37612)">
<stop stop-color="white"/>
<stop offset="1"/>
</radialGradient>
<linearGradient id="paint19_linear_522_9966" x1="293.519" y1="444.5" x2="298.145" y2="444.5" gradientUnits="userSpaceOnUse">
<stop stop-color="#25054D"/>
<stop offset="0.5" stop-color="#45108A"/>
<stop offset="1" stop-color="#25054D"/>
</linearGradient>
<linearGradient id="paint20_linear_522_9966" x1="293.987" y1="441.332" x2="297.704" y2="443.482" gradientUnits="userSpaceOnUse">
<stop stop-color="#25054D"/>
<stop offset="0.5833" stop-color="#2F085F"/>
<stop offset="1" stop-color="#370B6F"/>
</linearGradient>
<linearGradient id="paint21_linear_522_9966" x1="284.392" y1="404.668" x2="289.018" y2="404.668" gradientUnits="userSpaceOnUse">
<stop stop-color="#25054D"/>
<stop offset="0.5" stop-color="#45108A"/>
<stop offset="1" stop-color="#25054D"/>
</linearGradient>
<linearGradient id="paint22_linear_522_9966" x1="284.86" y1="401.5" x2="288.577" y2="403.65" gradientUnits="userSpaceOnUse">
<stop stop-color="#25054D"/>
<stop offset="0.5833" stop-color="#2F085F"/>
<stop offset="1" stop-color="#370B6F"/>
</linearGradient>
<linearGradient id="paint23_linear_522_9966" x1="343.483" y1="383.123" x2="348.109" y2="383.123" gradientUnits="userSpaceOnUse">
<stop stop-color="#25054D"/>
<stop offset="0.5" stop-color="#45108A"/>
<stop offset="1" stop-color="#25054D"/>
</linearGradient>
<linearGradient id="paint24_linear_522_9966" x1="391.517" y1="415.042" x2="396.143" y2="415.042" gradientUnits="userSpaceOnUse">
<stop stop-color="#25054D"/>
<stop offset="0.5" stop-color="#45108A"/>
<stop offset="1" stop-color="#25054D"/>
</linearGradient>
<linearGradient id="paint25_linear_522_9966" x1="391.984" y1="411.874" x2="395.702" y2="414.024" gradientUnits="userSpaceOnUse">
<stop stop-color="#25054D"/>
<stop offset="0.5833" stop-color="#2F085F"/>
<stop offset="1" stop-color="#370B6F"/>
</linearGradient>
<linearGradient id="paint26_linear_522_9966" x1="361.337" y1="451.881" x2="365.963" y2="451.881" gradientUnits="userSpaceOnUse">
<stop stop-color="#25054D"/>
<stop offset="0.5" stop-color="#45108A"/>
<stop offset="1" stop-color="#25054D"/>
</linearGradient>
<linearGradient id="paint27_linear_522_9966" x1="361.805" y1="448.713" x2="365.522" y2="450.863" gradientUnits="userSpaceOnUse">
<stop stop-color="#25054D"/>
<stop offset="0.5833" stop-color="#2F085F"/>
<stop offset="1" stop-color="#370B6F"/>
</linearGradient>
<linearGradient id="paint28_linear_522_9966" x1="335.653" y1="415.258" x2="380.794" y2="354.411" gradientUnits="userSpaceOnUse">
<stop offset="0.030303" stop-color="#8688B3"/>
<stop offset="0.4899" stop-color="#AAABCB"/>
<stop offset="1" stop-color="#C7BAD8"/>
</linearGradient>
<linearGradient id="paint29_linear_522_9966" x1="294.106" y1="396.511" x2="334.523" y2="466.639" gradientUnits="userSpaceOnUse">
<stop offset="0.030303" stop-color="#8688B3"/>
<stop offset="0.4899" stop-color="#AAABCB"/>
<stop offset="1" stop-color="#C7BAD8"/>
</linearGradient>
<linearGradient id="paint30_linear_522_9966" x1="329.059" y1="408.878" x2="343.154" y2="408.878" gradientUnits="userSpaceOnUse">
<stop stop-color="#8A92B3"/>
<stop offset="0.0618641" stop-color="#8E95B6"/>
<stop offset="0.1294" stop-color="#9C9EBE"/>
<stop offset="0.1993" stop-color="#B1ACCB"/>
<stop offset="0.2525" stop-color="#C7BAD8"/>
<stop offset="0.3333" stop-color="#B2AACC"/>
<stop offset="0.4494" stop-color="#9A97BE"/>
<stop offset="0.5569" stop-color="#8B8CB6"/>
<stop offset="0.6465" stop-color="#8688B3"/>
<stop offset="0.8485" stop-color="#AAABCB"/>
<stop offset="1" stop-color="#9396B3"/>
</linearGradient>
<linearGradient id="paint31_linear_522_9966" x1="330.482" y1="399.225" x2="341.808" y2="405.776" gradientUnits="userSpaceOnUse">
<stop offset="0.0555556" stop-color="#838FC7"/>
<stop offset="0.2603" stop-color="#8590C8"/>
<stop offset="0.3611" stop-color="#8D94CB"/>
<stop offset="0.439" stop-color="#9A9ACF"/>
<stop offset="0.4949" stop-color="#A9A1D5"/>
<stop offset="0.5931" stop-color="#ADA5D7"/>
<stop offset="0.7001" stop-color="#B9B3DD"/>
<stop offset="0.8115" stop-color="#CDC8E7"/>
<stop offset="0.925" stop-color="#E9E7F4"/>
<stop offset="1" stop-color="white"/>
</linearGradient>
<linearGradient id="paint32_linear_522_9966" x1="330.1" y1="388.197" x2="342.126" y2="388.197" gradientUnits="userSpaceOnUse">
<stop stop-color="#8A92B3"/>
<stop offset="0.0618641" stop-color="#8E95B6"/>
<stop offset="0.1294" stop-color="#9C9EBE"/>
<stop offset="0.1993" stop-color="#B1ACCB"/>
<stop offset="0.2525" stop-color="#C7BAD8"/>
<stop offset="0.3333" stop-color="#B2AACC"/>
<stop offset="0.4494" stop-color="#9A97BE"/>
<stop offset="0.5569" stop-color="#8B8CB6"/>
<stop offset="0.6465" stop-color="#8688B3"/>
<stop offset="0.8485" stop-color="#AAABCB"/>
<stop offset="1" stop-color="#9396B3"/>
</linearGradient>
<linearGradient id="paint33_linear_522_9966" x1="336.151" y1="374.328" x2="336.151" y2="388.984" gradientUnits="userSpaceOnUse">
<stop stop-color="#4C4C4C"/>
<stop offset="1" stop-color="white"/>
</linearGradient>
<linearGradient id="paint34_linear_522_9966" x1="347.789" y1="375.915" x2="500.667" y2="330.053" gradientUnits="userSpaceOnUse">
<stop offset="0.030303" stop-color="#8688B3"/>
<stop offset="0.4899" stop-color="#AAABCB"/>
<stop offset="1" stop-color="#C7BAD8"/>
</linearGradient>
<linearGradient id="paint35_linear_522_9966" x1="202.594" y1="391.029" x2="399.294" y2="346.853" gradientUnits="userSpaceOnUse">
<stop offset="0.030303" stop-color="#8688B3"/>
<stop offset="0.4899" stop-color="#AAABCB"/>
<stop offset="1" stop-color="#C7BAD8"/>
</linearGradient>
<linearGradient id="paint36_linear_522_9966" x1="202.594" y1="387.055" x2="399.294" y2="342.88" gradientUnits="userSpaceOnUse">
<stop offset="0.0353535" stop-color="#9F19AB"/>
<stop offset="0.2438" stop-color="#AE25B1"/>
<stop offset="0.6455" stop-color="#D744BF"/>
<stop offset="1" stop-color="#FF63CE"/>
</linearGradient>
<linearGradient id="paint37_linear_522_9966" x1="314.459" y1="360.387" x2="254.016" y2="360.387" gradientUnits="userSpaceOnUse">
<stop stop-color="#311B61"/>
<stop offset="0.2031" stop-color="#290F52"/>
<stop offset="0.4949" stop-color="#200041"/>
<stop offset="1" stop-color="#0F001F"/>
</linearGradient>
<radialGradient id="paint38_radial_522_9966" cx="0" cy="0" r="1" gradientUnits="userSpaceOnUse" gradientTransform="translate(209.319 379.252) rotate(180) scale(179.845 179.511)">
<stop offset="0.030303" stop-color="#FEDFCB"/>
<stop offset="1" stop-color="#F9B69E"/>
</radialGradient>
<radialGradient id="paint39_radial_522_9966" cx="0" cy="0" r="1" gradientUnits="userSpaceOnUse" gradientTransform="translate(209.319 379.252) rotate(180) scale(179.845 179.511)">
<stop offset="0.030303" stop-color="#FEDFCB"/>
<stop offset="1" stop-color="#F9B69E"/>
</radialGradient>
<radialGradient id="paint40_radial_522_9966" cx="0" cy="0" r="1" gradientUnits="userSpaceOnUse" gradientTransform="translate(322.031 188.115) rotate(180) scale(45.3565 45.2722)">
<stop offset="0.030303" stop-color="#FEDFCB"/>
<stop offset="1" stop-color="#F9B69E"/>
</radialGradient>
<linearGradient id="paint41_linear_522_9966" x1="220.813" y1="327.234" x2="363.71" y2="327.234" gradientUnits="userSpaceOnUse">
<stop offset="0.0555556" stop-color="#200041"/>
<stop offset="0.2576" stop-color="#210243"/>
<stop offset="0.3572" stop-color="#25084B"/>
<stop offset="0.4341" stop-color="#2C1358"/>
<stop offset="0.4697" stop-color="#311B61"/>
<stop offset="0.482" stop-color="#351F65"/>
<stop offset="0.4954" stop-color="#422C73"/>
<stop offset="0.5093" stop-color="#584188"/>
<stop offset="0.5235" stop-color="#765FA7"/>
<stop offset="0.5303" stop-color="#8770B8"/>
<stop offset="0.5366" stop-color="#7E67AE"/>
<stop offset="0.5617" stop-color="#5C468D"/>
<stop offset="0.5857" stop-color="#442E75"/>
<stop offset="0.6078" stop-color="#362066"/>
<stop offset="0.6263" stop-color="#311B61"/>
<stop offset="0.6724" stop-color="#2A1155"/>
<stop offset="0.7491" stop-color="#230446"/>
<stop offset="0.8131" stop-color="#200041"/>
<stop offset="1" stop-color="#200041"/>
</linearGradient>
<linearGradient id="paint42_linear_522_9966" x1="217.926" y1="323.691" x2="348.316" y2="323.691" gradientUnits="userSpaceOnUse">
<stop stop-color="#311B61"/>
<stop offset="0.2031" stop-color="#290F52"/>
<stop offset="0.4949" stop-color="#200041"/>
<stop offset="1" stop-color="#0F001F"/>
</linearGradient>
<linearGradient id="paint43_linear_522_9966" x1="344.882" y1="335.592" x2="234.81" y2="314.303" gradientUnits="userSpaceOnUse">
<stop stop-color="#3D065F"/>
<stop offset="1" stop-color="#5F27BD"/>
</linearGradient>
<linearGradient id="paint44_linear_522_9966" x1="273.287" y1="344.461" x2="275.074" y2="301.27" gradientUnits="userSpaceOnUse">
<stop stop-color="#3D065F"/>
<stop offset="1" stop-color="#10054D"/>
</linearGradient>
<linearGradient id="paint45_linear_522_9966" x1="263.954" y1="299.3" x2="297.159" y2="351.508" gradientUnits="userSpaceOnUse">
<stop offset="0.0555556" stop-color="#9F79B8"/>
<stop offset="0.2502" stop-color="#A17BBA"/>
<stop offset="0.3461" stop-color="#A883C0"/>
<stop offset="0.4204" stop-color="#B490CC"/>
<stop offset="0.4836" stop-color="#C5A3DC"/>
<stop offset="0.5392" stop-color="#DBBBF0"/>
<stop offset="0.5606" stop-color="#E6C6FA"/>
<stop offset="0.5967" stop-color="#D6B6F1"/>
<stop offset="0.6872" stop-color="#B595DD"/>
<stop offset="0.7735" stop-color="#9D7DCF"/>
<stop offset="0.8529" stop-color="#8E6EC6"/>
<stop offset="0.9192" stop-color="#8969C3"/>
</linearGradient>
<radialGradient id="paint46_radial_522_9966" cx="0" cy="0" r="1" gradientUnits="userSpaceOnUse" gradientTransform="translate(281.081 301.396) rotate(180) scale(47.7736 47.6848)">
<stop offset="0.030303" stop-color="#FEDFCB"/>
<stop offset="1" stop-color="#F9B69E"/>
</radialGradient>
<radialGradient id="paint47_radial_522_9966" cx="0" cy="0" r="1" gradientUnits="userSpaceOnUse" gradientTransform="translate(327.491 318.135) rotate(180) scale(81.1334 80.9827)">
<stop offset="0.030303" stop-color="#FEDFCB"/>
<stop offset="1" stop-color="#F9B69E"/>
</radialGradient>
<linearGradient id="paint48_linear_522_9966" x1="382.127" y1="225.747" x2="342.636" y2="225.747" gradientUnits="userSpaceOnUse">
<stop offset="0.0353535" stop-color="#602213"/>
<stop offset="0.571" stop-color="#6D310E"/>
<stop offset="1" stop-color="#7A4108"/>
</linearGradient>
<radialGradient id="paint49_radial_522_9966" cx="0" cy="0" r="1" gradientUnits="userSpaceOnUse" gradientTransform="translate(329.053 195.9) rotate(180) scale(33.2076 33.1459)">
<stop offset="0.030303" stop-color="#FEDFCB"/>
<stop offset="1" stop-color="#F9B69E"/>
</radialGradient>
<linearGradient id="paint50_linear_522_9966" x1="369.022" y1="176.596" x2="317.25" y2="176.596" gradientUnits="userSpaceOnUse">
<stop offset="0.0353535" stop-color="#602213"/>
<stop offset="0.571" stop-color="#6D310E"/>
<stop offset="1" stop-color="#7A4108"/>
</linearGradient>
<linearGradient id="paint51_linear_522_9966" x1="291.628" y1="309.151" x2="38.3087" y2="287.008" gradientUnits="userSpaceOnUse">
<stop stop-color="#311B61"/>
<stop offset="0.2031" stop-color="#290F52"/>
<stop offset="0.4949" stop-color="#200041"/>
<stop offset="1" stop-color="#0F001F"/>
</linearGradient>
<linearGradient id="paint52_linear_522_9966" x1="311.636" y1="363.406" x2="245.135" y2="256.948" gradientUnits="userSpaceOnUse">
<stop offset="0.0555556" stop-color="#200041"/>
<stop offset="0.2576" stop-color="#210243"/>
<stop offset="0.3572" stop-color="#25084B"/>
<stop offset="0.4341" stop-color="#2C1358"/>
<stop offset="0.4697" stop-color="#311B61"/>
<stop offset="0.482" stop-color="#351F65"/>
<stop offset="0.4954" stop-color="#422C73"/>
<stop offset="0.5093" stop-color="#584188"/>
<stop offset="0.5235" stop-color="#765FA7"/>
<stop offset="0.5303" stop-color="#8770B8"/>
<stop offset="0.5366" stop-color="#7E67AE"/>
<stop offset="0.5617" stop-color="#5C468D"/>
<stop offset="0.5857" stop-color="#442E75"/>
<stop offset="0.6078" stop-color="#362066"/>
<stop offset="0.6263" stop-color="#311B61"/>
<stop offset="0.6724" stop-color="#2A1155"/>
<stop offset="0.7491" stop-color="#230446"/>
<stop offset="0.8131" stop-color="#200041"/>
<stop offset="1" stop-color="#200041"/>
</linearGradient>
<linearGradient id="paint53_linear_522_9966" x1="337.313" y1="213.838" x2="359.892" y2="199.883" gradientUnits="userSpaceOnUse">
<stop stop-color="#311B61"/>
<stop offset="0.2031" stop-color="#290F52"/>
<stop offset="0.4949" stop-color="#200041"/>
<stop offset="1" stop-color="#0F001F"/>
</linearGradient>
<linearGradient id="paint54_linear_522_9966" x1="334.249" y1="212.182" x2="338.039" y2="209.84" gradientUnits="userSpaceOnUse">
<stop stop-color="#311B61"/>
<stop offset="0.2031" stop-color="#290F52"/>
<stop offset="0.4949" stop-color="#200041"/>
<stop offset="1" stop-color="#0F001F"/>
</linearGradient>
<linearGradient id="paint55_linear_522_9966" x1="353.208" y1="200.916" x2="361.735" y2="185.424" gradientUnits="userSpaceOnUse">
<stop offset="0.0555556" stop-color="#200041"/>
<stop offset="0.1029" stop-color="#220345"/>
<stop offset="0.5152" stop-color="#311B61"/>
<stop offset="0.5886" stop-color="#2A1155"/>
<stop offset="0.711" stop-color="#230446"/>
<stop offset="0.8131" stop-color="#200041"/>
<stop offset="1" stop-color="#200041"/>
</linearGradient>
<linearGradient id="paint56_linear_522_9966" x1="355.244" y1="193.148" x2="375.994" y2="199.016" gradientUnits="userSpaceOnUse">
<stop stop-color="#311B61"/>
<stop offset="0.2031" stop-color="#290F52"/>
<stop offset="0.4949" stop-color="#200041"/>
<stop offset="1" stop-color="#0F001F"/>
</linearGradient>
<linearGradient id="paint57_linear_522_9966" x1="357.633" y1="199.121" x2="365.871" y2="185.148" gradientUnits="userSpaceOnUse">
<stop offset="0.0555556" stop-color="#200041"/>
<stop offset="0.1029" stop-color="#220345"/>
<stop offset="0.5152" stop-color="#311B61"/>
<stop offset="0.5886" stop-color="#2A1155"/>
<stop offset="0.711" stop-color="#230446"/>
<stop offset="0.8131" stop-color="#200041"/>
<stop offset="1" stop-color="#200041"/>
</linearGradient>
<linearGradient id="paint58_linear_522_9966" x1="357.131" y1="195.399" x2="365.587" y2="195.399" gradientUnits="userSpaceOnUse">
<stop stop-color="#311B61"/>
<stop offset="0.2031" stop-color="#290F52"/>
<stop offset="0.4949" stop-color="#200041"/>
<stop offset="1" stop-color="#0F001F"/>
</linearGradient>
<linearGradient id="paint59_linear_522_9966" x1="355.587" y1="202.567" x2="372.075" y2="183.827" gradientUnits="userSpaceOnUse">
<stop stop-color="#311B61"/>
<stop offset="0.2031" stop-color="#290F52"/>
<stop offset="0.4949" stop-color="#200041"/>
<stop offset="1" stop-color="#0F001F"/>
</linearGradient>
<linearGradient id="paint60_linear_522_9966" x1="334" y1="151.524" x2="360.932" y2="189.231" gradientUnits="userSpaceOnUse">
<stop offset="0.0555556" stop-color="#200041"/>
<stop offset="0.1029" stop-color="#220345"/>
<stop offset="0.5152" stop-color="#311B61"/>
<stop offset="0.5886" stop-color="#2A1155"/>
<stop offset="0.711" stop-color="#230446"/>
<stop offset="0.8131" stop-color="#200041"/>
<stop offset="1" stop-color="#200041"/>
</linearGradient>
<linearGradient id="paint61_linear_522_9966" x1="327.704" y1="175.084" x2="360.385" y2="175.084" gradientUnits="userSpaceOnUse">
<stop stop-color="#311B61"/>
<stop offset="0.2031" stop-color="#290F52"/>
<stop offset="0.4949" stop-color="#200041"/>
<stop offset="1" stop-color="#0F001F"/>
</linearGradient>
</defs>
</svg>