<?xml version="1.0" encoding="utf-8"?>
<!-- Generator: Adobe Illustrator 23.0.5, SVG Export Plug-In . SVG Version: 6.00 Build 0)  -->
<svg version="1.1" id="Layer_1" xmlns="http://www.w3.org/2000/svg" xmlns:xlink="http://www.w3.org/1999/xlink" x="0px" y="0px"
	 viewBox="0 0 128 128" style="enable-background:new 0 0 128 128;" xml:space="preserve">
<style type="text/css">
	.st0{fill:#1ACAA0;}
</style>
<g>
	<g>
		<path class="st0" d="M64,0C51.6,0,41.5,10.3,41.5,22.8S51.6,45.3,64,45.3s22.5-10.1,22.5-22.5S76.4,0,64,0z"/>
	</g>
</g>
<g>
	<g>
		<path class="st0" d="M71.5,45.3H64h-7.5c-5.3,0-10.4,1.4-15,3.7c7.9,2.1,15.3,5.2,22.5,9.3c7.2-4.1,14.7-7.2,22.5-9.3
			C81.9,46.6,76.8,45.3,71.5,45.3z"/>
	</g>
</g>
<g>
	<g>
		<path class="st0" d="M120.5,67.8c-4.1,0-7.5,3.4-7.5,7.5v15c0,4.1,3.4,7.5,7.5,7.5s7.5-3.4,7.5-7.5v-15
			C128,71.1,124.6,67.8,120.5,67.8z"/>
	</g>
</g>
<g>
	<g>
		<path class="st0" d="M7.5,67.8c-4.1,0-7.5,3.4-7.5,7.5v15c0,4.1,3.4,7.5,7.5,7.5s7.5-3.4,7.5-7.5v-15C15,71.1,11.6,67.8,7.5,67.8z
			"/>
	</g>
</g>
<g>
	<g>
		<path class="st0" d="M11.3,52.8c-2.1,0-3.8,1.7-3.8,3.8v3.8c8.3,0,15,6.7,15,15v15c0,8.3-6.7,15-15,15v3.8c0,2.1,1.7,3.8,3.8,3.8
			c19.2,0,34.6,6.1,49,15.3V64.9C45.8,56.6,30.2,52.8,11.3,52.8z"/>
	</g>
</g>
<g>
	<g>
		<path class="st0" d="M120.5,60.3v-3.8c0-2.1-1.7-3.8-3.8-3.8c-19,0-34.5,3.9-49,12.1V128c14.4-9.2,29.8-15.3,49-15.3
			c2.1,0,3.8-1.7,3.8-3.8v-3.8c-8.3,0-15-6.7-15-15v-15C105.5,67,112.2,60.3,120.5,60.3z"/>
	</g>
</g>
</svg>
