<svg width="126" height="35" viewBox="0 0 126 35" fill="none" xmlns="http://www.w3.org/2000/svg">
<path d="M9.476 27.216C7.388 27.216 5.696 26.832 4.4 26.064C3.128 25.296 2.192 24.252 1.592 22.932C1.016 21.588 0.728 20.088 0.728 18.432C0.728 17.808 0.764 17.184 0.836 16.56C0.908 15.912 1.016 15.252 1.16 14.58L3.968 1.44H10.988L8.18 14.58C8.084 15.036 8.012 15.48 7.964 15.912C7.916 16.32 7.892 16.728 7.892 17.136C7.892 17.88 7.988 18.54 8.18 19.116C8.372 19.692 8.684 20.148 9.116 20.484C9.548 20.82 10.112 20.988 10.808 20.988C11.528 20.988 12.176 20.82 12.752 20.484C13.328 20.124 13.844 19.644 14.3 19.044C14.756 18.42 15.14 17.724 15.452 16.956C15.764 16.188 16.004 15.396 16.172 14.58L18.98 1.44H26L23.192 14.58C22.808 16.356 22.232 18.012 21.464 19.548C20.696 21.084 19.736 22.428 18.584 23.58C17.432 24.732 16.088 25.632 14.552 26.28C13.04 26.904 11.348 27.216 9.476 27.216ZM27.7677 8.064H33.7077L33.0957 10.908C33.9357 9.876 34.8837 9.084 35.9397 8.532C36.9957 7.98 38.1957 7.704 39.5397 7.704C40.8837 7.704 42.0357 8.04 42.9957 8.712C43.9797 9.36 44.7357 10.26 45.2637 11.412C45.7917 12.54 46.0557 13.848 46.0557 15.336C46.0557 16.944 45.7797 18.48 45.2277 19.944C44.6757 21.384 43.9317 22.668 42.9957 23.796C42.0597 24.9 40.9797 25.776 39.7557 26.424C38.5557 27.048 37.3077 27.36 36.0117 27.36C34.7397 27.36 33.6837 27.096 32.8437 26.568C32.0037 26.016 31.4517 25.224 31.1877 24.192L28.9557 34.668H22.1157L27.7677 8.064ZM34.8597 21.6C35.3637 21.6 35.8557 21.468 36.3357 21.204C36.8157 20.916 37.2477 20.532 37.6317 20.052C38.0157 19.572 38.3157 19.02 38.5317 18.396C38.7717 17.772 38.8917 17.124 38.8917 16.452C38.8917 15.852 38.7837 15.336 38.5677 14.904C38.3757 14.448 38.0877 14.1 37.7037 13.86C37.3197 13.596 36.8517 13.464 36.2997 13.464C36.0117 13.464 35.7357 13.512 35.4717 13.608C35.2077 13.68 34.9437 13.8 34.6797 13.968C34.4157 14.112 34.1517 14.304 33.8877 14.544C33.6237 14.784 33.3477 15.072 33.0597 15.408L32.3397 18.684C32.4357 19.236 32.5917 19.74 32.8077 20.196C33.0477 20.628 33.3477 20.976 33.7077 21.24C34.0677 21.48 34.4517 21.6 34.8597 21.6Z" fill="#1EEBCD"/>
<path d="M65.0268 6.228C64.6668 5.82 64.2468 5.46 63.7668 5.148C63.2868 4.812 62.7468 4.524 62.1468 4.284C61.5468 4.044 60.8988 3.852 60.2028 3.708C59.5308 3.564 58.8108 3.492 58.0428 3.492C55.8108 3.492 54.1668 3.924 53.1108 4.788C52.0788 5.628 51.5628 6.78 51.5628 8.244C51.5628 9.252 51.8028 10.044 52.2828 10.62C52.7868 11.196 53.5668 11.664 54.6228 12.024C55.6788 12.384 57.0228 12.756 58.6548 13.14C60.4788 13.524 62.0508 13.98 63.3708 14.508C64.6908 15.036 65.7108 15.756 66.4308 16.668C67.1508 17.556 67.5108 18.768 67.5108 20.304C67.5108 21.48 67.2828 22.5 66.8268 23.364C66.3708 24.228 65.7348 24.948 64.9188 25.524C64.1028 26.1 63.1308 26.532 62.0028 26.82C60.8748 27.084 59.6388 27.216 58.2948 27.216C56.9748 27.216 55.7028 27.084 54.4788 26.82C53.2788 26.532 52.1388 26.124 51.0588 25.596C49.9788 25.044 48.9708 24.348 48.0348 23.508L49.2948 21.456C49.7508 21.936 50.2908 22.392 50.9148 22.824C51.5628 23.232 52.2708 23.604 53.0388 23.94C53.8308 24.276 54.6708 24.54 55.5588 24.732C56.4708 24.9 57.4068 24.984 58.3668 24.984C60.4068 24.984 61.9908 24.612 63.1188 23.868C64.2708 23.124 64.8468 22.02 64.8468 20.556C64.8468 19.5 64.5588 18.66 63.9828 18.036C63.4068 17.388 62.5428 16.86 61.3908 16.452C60.2388 16.044 58.8228 15.648 57.1428 15.264C55.3668 14.856 53.8668 14.4 52.6428 13.896C51.4188 13.392 50.4948 12.732 49.8708 11.916C49.2708 11.076 48.9708 9.972 48.9708 8.604C48.9708 7.02 49.3548 5.688 50.1228 4.608C50.9148 3.504 51.9948 2.676 53.3628 2.124C54.7308 1.548 56.3028 1.26 58.0788 1.26C59.2068 1.26 60.2508 1.38 61.2108 1.62C62.1948 1.836 63.0948 2.16 63.9108 2.592C64.7508 3.024 65.5308 3.564 66.2508 4.212L65.0268 6.228ZM79.55 27.36C78.206 27.36 76.958 27.108 75.806 26.604C74.654 26.076 73.658 25.368 72.818 24.48C71.978 23.568 71.318 22.524 70.838 21.348C70.382 20.172 70.154 18.912 70.154 17.568C70.154 15.816 70.55 14.208 71.342 12.744C72.158 11.28 73.274 10.116 74.69 9.252C76.106 8.364 77.714 7.92 79.514 7.92C81.362 7.92 82.97 8.364 84.338 9.252C85.73 10.14 86.822 11.316 87.614 12.78C88.406 14.22 88.802 15.804 88.802 17.532C88.802 17.724 88.802 17.916 88.802 18.108C88.802 18.276 88.79 18.408 88.766 18.504H72.71C72.83 19.848 73.202 21.048 73.826 22.104C74.474 23.136 75.302 23.964 76.31 24.588C77.342 25.188 78.458 25.488 79.658 25.488C80.882 25.488 82.034 25.176 83.114 24.552C84.218 23.928 84.986 23.112 85.418 22.104L87.542 22.68C87.158 23.568 86.57 24.372 85.778 25.092C84.986 25.812 84.05 26.376 82.97 26.784C81.914 27.168 80.774 27.36 79.55 27.36ZM72.638 16.74H86.498C86.402 15.372 86.03 14.172 85.382 13.14C84.758 12.108 83.93 11.304 82.898 10.728C81.89 10.128 80.774 9.828 79.55 9.828C78.326 9.828 77.21 10.128 76.202 10.728C75.194 11.304 74.366 12.12 73.718 13.176C73.094 14.208 72.734 15.396 72.638 16.74ZM92.6869 0.719999H95.1349V22.752C95.1349 23.688 95.3029 24.3 95.6389 24.588C95.9749 24.876 96.3829 25.02 96.8629 25.02C97.2949 25.02 97.7269 24.972 98.1589 24.876C98.5909 24.78 98.9629 24.684 99.2749 24.588L99.7069 26.568C99.2509 26.76 98.6869 26.916 98.0149 27.036C97.3669 27.156 96.8029 27.216 96.3229 27.216C95.2189 27.216 94.3309 26.892 93.6589 26.244C93.0109 25.596 92.6869 24.708 92.6869 23.58V0.719999ZM102.496 0.719999H104.944V22.752C104.944 23.688 105.112 24.3 105.448 24.588C105.784 24.876 106.192 25.02 106.672 25.02C107.104 25.02 107.536 24.972 107.968 24.876C108.4 24.78 108.772 24.684 109.084 24.588L109.516 26.568C109.06 26.76 108.496 26.916 107.824 27.036C107.176 27.156 106.612 27.216 106.132 27.216C105.028 27.216 104.14 26.892 103.468 26.244C102.82 25.596 102.496 24.708 102.496 23.58V0.719999ZM118.352 27.36C116.816 27.36 115.388 27.108 114.068 26.604C112.748 26.1 111.608 25.332 110.648 24.3L111.656 22.572C112.712 23.556 113.768 24.276 114.824 24.732C115.904 25.164 117.044 25.38 118.244 25.38C119.708 25.38 120.896 25.092 121.808 24.516C122.72 23.916 123.176 23.064 123.176 21.96C123.176 21.216 122.948 20.652 122.492 20.268C122.06 19.86 121.424 19.536 120.584 19.296C119.768 19.032 118.784 18.756 117.632 18.468C116.336 18.108 115.244 17.736 114.356 17.352C113.492 16.944 112.832 16.44 112.376 15.84C111.944 15.216 111.728 14.412 111.728 13.428C111.728 12.204 112.028 11.196 112.628 10.404C113.252 9.588 114.092 8.976 115.148 8.568C116.228 8.136 117.428 7.92 118.748 7.92C120.188 7.92 121.46 8.148 122.564 8.604C123.668 9.06 124.568 9.696 125.264 10.512L124.076 12.168C123.404 11.4 122.6 10.836 121.664 10.476C120.752 10.092 119.732 9.9 118.604 9.9C117.836 9.9 117.104 10.008 116.408 10.224C115.712 10.416 115.136 10.752 114.68 11.232C114.248 11.688 114.032 12.324 114.032 13.14C114.032 13.812 114.2 14.34 114.536 14.724C114.872 15.084 115.376 15.396 116.048 15.66C116.72 15.9 117.548 16.164 118.532 16.452C119.948 16.836 121.184 17.232 122.24 17.64C123.296 18.024 124.112 18.528 124.688 19.152C125.264 19.776 125.552 20.652 125.552 21.78C125.552 23.532 124.892 24.9 123.572 25.884C122.252 26.868 120.512 27.36 118.352 27.36Z" fill="white"/>
</svg>
