<svg width="1086" height="1454" viewBox="0 0 1086 1454" fill="none" xmlns="http://www.w3.org/2000/svg">
  <path fill-rule="evenodd" clip-rule="evenodd" d="M770.419 66.1105C771.325 67.3557 770.543 69.1141 769.012 69.2758L689.778 77.6425C688.247 77.8042 687.115 76.2478 687.74 74.841L720.111 2.03916C720.737 0.632363 722.651 0.430257 723.556 1.67537L770.419 66.1105ZM861.793 106.74C862.699 107.985 861.917 109.743 860.386 109.905L781.152 118.272C779.621 118.434 778.489 116.877 779.115 115.47L811.486 42.6685C812.111 41.2617 814.025 41.0596 814.931 42.3047L861.793 106.74ZM953.168 147.369C954.073 148.614 953.291 150.373 951.76 150.534L872.526 158.901C870.995 159.063 869.863 157.506 870.489 156.1L902.86 83.2978C903.486 81.891 905.399 81.6889 906.305 82.934L953.168 147.369ZM1044.54 187.998C1045.45 189.244 1044.67 191.002 1043.13 191.164L963.901 199.53C962.37 199.692 961.238 198.136 961.863 196.729L994.234 123.927C994.86 122.52 996.774 122.318 997.679 123.563L1044.54 187.998ZM1135.92 228.628C1136.82 229.873 1136.04 231.631 1134.51 231.793L1055.27 240.16C1053.74 240.321 1052.61 238.765 1053.24 237.358L1085.61 164.556C1086.23 163.15 1088.15 162.948 1089.05 164.193L1135.92 228.628ZM1227.29 269.257C1228.2 270.502 1227.41 272.261 1225.88 272.422L1146.65 280.789C1145.12 280.951 1143.99 279.394 1144.61 277.988L1176.98 205.186C1177.61 203.779 1179.52 203.577 1180.43 204.822L1227.29 269.257ZM1318.66 309.886C1319.57 311.131 1318.79 312.89 1317.26 313.052L1238.02 321.418C1236.49 321.58 1235.36 320.024 1235.99 318.617L1268.36 245.815C1268.98 244.408 1270.9 244.206 1271.8 245.451L1318.66 309.886ZM1410.04 350.516C1410.94 351.761 1410.16 353.519 1408.63 353.681L1329.4 362.048C1327.87 362.209 1326.73 360.653 1327.36 359.246L1359.73 286.444C1360.36 285.038 1362.27 284.835 1363.18 286.081L1410.04 350.516ZM1355.81 472.468C1357.34 472.306 1358.13 470.547 1357.22 469.302L1310.36 404.867C1309.45 403.622 1307.54 403.824 1306.91 405.231L1274.54 478.033C1273.92 479.44 1275.05 480.996 1276.58 480.834L1355.81 472.468ZM1304.4 588.089C1305.31 589.334 1304.53 591.092 1303 591.254L1223.76 599.621C1222.23 599.782 1221.1 598.226 1221.72 596.819L1254.1 524.017C1254.72 522.611 1256.63 522.409 1257.54 523.654L1304.4 588.089ZM1250.18 710.041C1251.71 709.879 1252.49 708.12 1251.58 706.875L1204.72 642.44C1203.82 641.195 1201.9 641.397 1201.28 642.804L1168.91 715.606C1168.28 717.013 1169.41 718.569 1170.94 718.407L1250.18 710.041ZM1198.77 825.662C1199.67 826.907 1198.89 828.666 1197.36 828.827L1118.13 837.194C1116.59 837.356 1115.46 835.799 1116.09 834.392L1148.46 761.591C1149.08 760.184 1151 759.982 1151.9 761.227L1198.77 825.662ZM1144.54 947.614C1146.07 947.452 1146.85 945.694 1145.95 944.449L1099.09 880.013C1098.18 878.768 1096.27 878.97 1095.64 880.377L1063.27 953.179C1062.64 954.586 1063.78 956.142 1065.31 955.981L1144.54 947.614ZM1093.13 1063.24C1094.04 1064.48 1093.25 1066.24 1091.72 1066.4L1012.49 1074.77C1010.96 1074.93 1009.83 1073.37 1010.45 1071.97L1042.82 999.164C1043.45 997.757 1045.36 997.555 1046.27 998.8L1093.13 1063.24ZM1038.9 1185.19C1040.44 1185.03 1041.22 1183.27 1040.31 1182.02L993.45 1117.59C992.544 1116.34 990.63 1116.54 990.005 1117.95L957.634 1190.75C957.008 1192.16 958.14 1193.72 959.671 1193.55L1038.9 1185.19ZM987.494 1300.81C988.4 1302.05 987.618 1303.81 986.087 1303.97L906.853 1312.34C905.322 1312.5 904.19 1310.95 904.816 1309.54L937.187 1236.74C937.812 1235.33 939.726 1235.13 940.632 1236.37L987.494 1300.81ZM933.269 1422.76C934.8 1422.6 935.582 1420.84 934.676 1419.59L887.814 1355.16C886.908 1353.91 884.994 1354.12 884.369 1355.52L851.997 1428.33C851.372 1429.73 852.504 1431.29 854.035 1431.13L933.269 1422.76ZM881.858 1538.38C882.764 1539.63 881.982 1541.38 880.451 1541.55L801.217 1549.91C799.686 1550.08 798.554 1548.52 799.179 1547.11L831.55 1474.31C832.176 1472.9 834.09 1472.7 834.995 1473.95L881.858 1538.38ZM827.632 1660.33C829.164 1660.17 829.946 1658.41 829.04 1657.17L782.177 1592.73C781.272 1591.49 779.358 1591.69 778.732 1593.1L746.361 1665.9C745.736 1667.31 746.868 1668.86 748.399 1668.7L827.632 1660.33ZM776.222 1775.95C777.127 1777.2 776.345 1778.96 774.814 1779.12L695.581 1787.49C694.05 1787.65 692.918 1786.09 693.543 1784.68L725.914 1711.88C726.54 1710.48 728.454 1710.27 729.359 1711.52L776.222 1775.95ZM723.404 1894.74C724.309 1895.99 723.527 1897.74 721.996 1897.91L642.762 1906.27C641.231 1906.43 640.099 1904.88 640.725 1903.47L673.096 1830.67C673.722 1829.26 675.636 1829.06 676.541 1830.31L723.404 1894.74ZM630.622 1857.28C632.153 1857.12 632.935 1855.36 632.03 1854.11L585.167 1789.68C584.261 1788.43 582.347 1788.63 581.722 1790.04L549.351 1862.84C548.725 1864.25 549.857 1865.81 551.388 1865.64L630.622 1857.28ZM684.848 1735.33C685.753 1736.57 684.971 1738.33 683.44 1738.49L604.206 1746.86C602.675 1747.02 601.543 1745.46 602.169 1744.06L634.54 1671.25C635.166 1669.85 637.079 1669.64 637.985 1670.89L684.848 1735.33ZM736.258 1619.7C737.789 1619.54 738.571 1617.78 737.666 1616.54L690.803 1552.1C689.897 1550.86 687.984 1551.06 687.358 1552.47L654.987 1625.27C654.361 1626.68 655.493 1628.23 657.024 1628.07L736.258 1619.7ZM790.484 1497.75C791.389 1499 790.607 1500.76 789.076 1500.92L709.843 1509.28C708.311 1509.45 707.179 1507.89 707.805 1506.48L740.176 1433.68C740.802 1432.27 742.716 1432.07 743.621 1433.32L790.484 1497.75ZM841.894 1382.13C843.426 1381.97 844.207 1380.21 843.302 1378.97L796.439 1314.53C795.534 1313.29 793.62 1313.49 792.994 1314.89L760.623 1387.7C759.998 1389.1 761.13 1390.66 762.661 1390.5L841.894 1382.13ZM896.12 1260.18C897.026 1261.42 896.244 1263.18 894.713 1263.34L815.479 1271.71C813.948 1271.87 812.816 1270.32 813.441 1268.91L845.812 1196.11C846.438 1194.7 848.352 1194.5 849.257 1195.74L896.12 1260.18ZM947.531 1144.56C949.062 1144.4 949.844 1142.64 948.938 1141.39L902.075 1076.96C901.17 1075.71 899.256 1075.91 898.63 1077.32L866.259 1150.12C865.634 1151.53 866.766 1153.09 868.297 1152.92L947.531 1144.56ZM1001.76 1022.61C1002.66 1023.85 1001.88 1025.61 1000.35 1025.77L921.115 1034.14C919.584 1034.3 918.452 1032.74 919.077 1031.34L951.449 958.534C952.074 957.128 953.988 956.926 954.894 958.171L1001.76 1022.61ZM1053.17 906.985C1054.7 906.823 1055.48 905.064 1054.57 903.819L1007.71 839.384C1006.81 838.139 1004.89 838.341 1004.27 839.748L971.896 912.55C971.27 913.956 972.402 915.513 973.933 915.351L1053.17 906.985ZM1107.39 785.033C1108.3 786.278 1107.52 788.036 1105.99 788.198L1026.75 796.565C1025.22 796.726 1024.09 795.17 1024.71 793.763L1057.08 720.961C1057.71 719.554 1059.62 719.352 1060.53 720.597L1107.39 785.033ZM1158.8 669.411C1160.33 669.25 1161.12 667.491 1160.21 666.246L1113.35 601.811C1112.44 600.566 1110.53 600.768 1109.9 602.175L1077.53 674.977C1076.91 676.383 1078.04 677.94 1079.57 677.778L1158.8 669.411ZM1213.03 547.46C1213.93 548.705 1213.15 550.463 1211.62 550.625L1132.39 558.992C1130.86 559.153 1129.72 557.597 1130.35 556.19L1162.72 483.388C1163.35 481.981 1165.26 481.779 1166.17 483.024L1213.03 547.46ZM1264.44 431.838C1265.97 431.677 1266.75 429.918 1265.85 428.673L1218.98 364.238C1218.08 362.993 1216.16 363.195 1215.54 364.602L1183.17 437.403C1182.54 438.81 1183.67 440.367 1185.21 440.205L1264.44 431.838ZM539.248 1816.65C540.779 1816.49 541.561 1814.73 540.655 1813.48L493.792 1749.05C492.887 1747.8 490.973 1748 490.348 1749.41L457.976 1822.21C457.351 1823.62 458.483 1825.18 460.014 1825.01L539.248 1816.65ZM593.473 1694.7C594.379 1695.94 593.597 1697.7 592.066 1697.86L512.832 1706.23C511.301 1706.39 510.169 1704.83 510.795 1703.43L543.166 1630.62C543.791 1629.22 545.705 1629.02 546.611 1630.26L593.473 1694.7ZM644.884 1579.07C646.415 1578.91 647.197 1577.15 646.291 1575.91L599.429 1511.47C598.523 1510.23 596.609 1510.43 595.984 1511.84L563.613 1584.64C562.987 1586.05 564.119 1587.6 565.65 1587.44L644.884 1579.07ZM699.109 1457.12C700.015 1458.37 699.233 1460.13 697.702 1460.29L618.468 1468.65C616.937 1468.82 615.805 1467.26 616.431 1465.85L648.802 1393.05C649.427 1391.64 651.341 1391.44 652.247 1392.69L699.109 1457.12ZM750.52 1341.5C752.051 1341.34 752.833 1339.58 751.928 1338.34L705.065 1273.9C704.159 1272.66 702.245 1272.86 701.62 1274.26L669.249 1347.07C668.623 1348.47 669.755 1350.03 671.286 1349.87L750.52 1341.5ZM804.746 1219.55C805.651 1220.79 804.869 1222.55 803.338 1222.71L724.104 1231.08C722.573 1231.24 721.441 1229.69 722.067 1228.28L754.438 1155.48C755.064 1154.07 756.977 1153.87 757.883 1155.11L804.746 1219.55ZM856.156 1103.93C857.687 1103.77 858.469 1102.01 857.564 1100.76L810.701 1036.33C809.796 1035.08 807.882 1035.28 807.256 1036.69L774.885 1109.49C774.26 1110.9 775.391 1112.46 776.923 1112.3L856.156 1103.93ZM910.382 981.976C911.287 983.222 910.506 984.98 908.975 985.142L829.741 993.508C828.21 993.67 827.078 992.114 827.703 990.707L860.074 917.905C860.7 916.498 862.614 916.296 863.519 917.541L910.382 981.976ZM961.793 866.355C963.324 866.194 964.106 864.435 963.2 863.19L916.337 798.755C915.432 797.51 913.518 797.712 912.892 799.119L880.521 871.92C879.896 873.327 881.028 874.884 882.559 874.722L961.793 866.355ZM1016.02 744.403C1016.92 745.648 1016.14 747.407 1014.61 747.569L935.377 755.935C933.846 756.097 932.714 754.541 933.339 753.134L965.71 680.332C966.336 678.925 968.25 678.723 969.155 679.968L1016.02 744.403ZM1067.43 628.782C1068.96 628.62 1069.74 626.862 1068.84 625.617L1021.97 561.182C1021.07 559.936 1019.15 560.139 1018.53 561.545L986.158 634.347C985.532 635.754 986.664 637.31 988.195 637.149L1067.43 628.782ZM1121.65 506.83C1122.56 508.075 1121.78 509.834 1120.25 509.995L1041.01 518.362C1039.48 518.524 1038.35 516.967 1038.98 515.561L1071.35 442.759C1071.97 441.352 1073.89 441.15 1074.79 442.395L1121.65 506.83ZM1173.06 391.209C1174.6 391.047 1175.38 389.289 1174.47 388.044L1127.61 323.608C1126.7 322.363 1124.79 322.565 1124.16 323.972L1091.79 396.774C1091.17 398.181 1092.3 399.737 1093.83 399.576L1173.06 391.209ZM447.873 1776.02C449.405 1775.86 450.186 1774.1 449.281 1772.85L402.418 1708.42C401.513 1707.17 399.599 1707.37 398.973 1708.78L366.602 1781.58C365.977 1782.99 367.109 1784.55 368.64 1784.39L447.873 1776.02ZM502.099 1654.07C503.005 1655.31 502.223 1657.07 500.692 1657.23L421.458 1665.6C419.927 1665.76 418.795 1664.2 419.42 1662.8L451.791 1590C452.417 1588.59 454.331 1588.39 455.236 1589.63L502.099 1654.07ZM553.51 1538.45C555.041 1538.28 555.823 1536.53 554.917 1535.28L508.054 1470.84C507.149 1469.6 505.235 1469.8 504.609 1471.21L472.238 1544.01C471.613 1545.42 472.745 1546.97 474.276 1546.81L553.51 1538.45ZM607.735 1416.49C608.641 1417.74 607.859 1419.5 606.328 1419.66L527.094 1428.03C525.563 1428.19 524.431 1426.63 525.056 1425.22L557.428 1352.42C558.053 1351.02 559.967 1350.81 560.873 1352.06L607.735 1416.49ZM659.146 1300.87C660.677 1300.71 661.459 1298.95 660.553 1297.71L613.691 1233.27C612.785 1232.03 610.871 1232.23 610.246 1233.64L577.875 1306.44C577.249 1307.84 578.381 1309.4 579.912 1309.24L659.146 1300.87ZM713.371 1178.92C714.277 1180.17 713.495 1181.92 711.964 1182.09L632.73 1190.45C631.199 1190.61 630.067 1189.06 630.693 1187.65L663.064 1114.85C663.689 1113.44 665.603 1113.24 666.509 1114.49L713.371 1178.92ZM764.782 1063.3C766.313 1063.14 767.095 1061.38 766.19 1060.13L719.327 995.699C718.421 994.453 716.507 994.656 715.882 996.062L683.511 1068.86C682.885 1070.27 684.017 1071.83 685.548 1071.67L764.782 1063.3ZM819.008 941.347C819.913 942.592 819.131 944.351 817.6 944.512L738.366 952.879C736.835 953.041 735.703 951.484 736.329 950.078L768.7 877.276C769.326 875.869 771.239 875.667 772.145 876.912L819.008 941.347ZM870.418 825.726C871.949 825.564 872.731 823.806 871.826 822.561L824.963 758.125C824.058 756.88 822.144 757.082 821.518 758.489L789.147 831.291C788.521 832.698 789.653 834.254 791.184 834.093L870.418 825.726ZM924.644 703.774C925.549 705.019 924.767 706.778 923.236 706.939L844.003 715.306C842.471 715.468 841.34 713.911 841.965 712.504L874.336 639.703C874.962 638.296 876.876 638.094 877.781 639.339L924.644 703.774ZM976.055 588.153C977.586 587.991 978.368 586.233 977.462 584.987L930.599 520.552C929.694 519.307 927.78 519.509 927.154 520.916L894.783 593.718C894.158 595.125 895.29 596.681 896.821 596.519L976.055 588.153ZM1030.28 466.201C1031.19 467.446 1030.4 469.205 1028.87 469.366L949.639 477.733C948.108 477.895 946.976 476.338 947.601 474.931L979.972 402.13C980.598 400.723 982.512 400.521 983.417 401.766L1030.28 466.201ZM1081.69 350.58C1083.22 350.418 1084 348.659 1083.1 347.414L1036.24 282.979C1035.33 281.734 1033.42 281.936 1032.79 283.343L1000.42 356.145C999.794 357.552 1000.93 359.108 1002.46 358.946L1081.69 350.58ZM356.499 1735.39C358.03 1735.23 358.812 1733.47 357.907 1732.22L311.044 1667.79C310.138 1666.54 308.224 1666.75 307.599 1668.15L275.228 1740.95C274.602 1742.36 275.734 1743.92 277.265 1743.76L356.499 1735.39ZM410.725 1613.44C411.63 1614.68 410.848 1616.44 409.317 1616.6L330.083 1624.97C328.552 1625.13 327.42 1623.57 328.046 1622.17L360.417 1549.37C361.043 1547.96 362.956 1547.76 363.862 1549L410.725 1613.44ZM462.135 1497.82C463.666 1497.65 464.448 1495.9 463.543 1494.65L416.68 1430.22C415.775 1428.97 413.861 1429.17 413.235 1430.58L380.864 1503.38C380.239 1504.79 381.37 1506.34 382.902 1506.18L462.135 1497.82ZM516.361 1375.86C517.267 1377.11 516.485 1378.87 514.953 1379.03L435.72 1387.4C434.189 1387.56 433.057 1386 433.682 1384.59L466.053 1311.79C466.679 1310.39 468.593 1310.18 469.498 1311.43L516.361 1375.86ZM567.772 1260.24C569.303 1260.08 570.085 1258.32 569.179 1257.08L522.316 1192.64C521.411 1191.4 519.497 1191.6 518.871 1193.01L486.5 1265.81C485.875 1267.21 487.007 1268.77 488.538 1268.61L567.772 1260.24ZM621.997 1138.29C622.903 1139.54 622.121 1141.29 620.59 1141.46L541.356 1149.82C539.825 1149.98 538.693 1148.43 539.318 1147.02L571.69 1074.22C572.315 1072.81 574.229 1072.61 575.134 1073.86L621.997 1138.29ZM673.408 1022.67C674.939 1022.51 675.721 1020.75 674.815 1019.5L627.953 955.069C627.047 953.824 625.133 954.026 624.508 955.433L592.137 1028.23C591.511 1029.64 592.643 1031.2 594.174 1031.04L673.408 1022.67ZM727.633 900.718C728.539 901.963 727.757 903.721 726.226 903.883L646.992 912.25C645.461 912.412 644.329 910.855 644.955 909.448L677.326 836.646C677.951 835.24 679.865 835.038 680.771 836.283L727.633 900.718ZM779.044 785.097C780.575 784.935 781.357 783.176 780.451 781.931L733.589 717.496C732.683 716.251 730.769 716.453 730.144 717.86L697.773 790.662C697.147 792.069 698.279 793.625 699.81 793.463L779.044 785.097ZM833.27 663.145C834.175 664.39 833.393 666.148 831.862 666.31L752.628 674.677C751.097 674.838 749.965 673.282 750.591 671.875L782.962 599.073C783.587 597.667 785.501 597.464 786.407 598.71L833.27 663.145ZM884.68 547.523C886.211 547.362 886.993 545.603 886.088 544.358L839.225 479.923C838.319 478.678 836.406 478.88 835.78 480.287L803.409 553.089C802.783 554.495 803.915 556.052 805.446 555.89L884.68 547.523ZM938.906 425.572C939.811 426.817 939.029 428.575 937.498 428.737L858.264 437.104C856.733 437.265 855.601 435.709 856.227 434.302L888.598 361.5C889.224 360.093 891.138 359.891 892.043 361.136L938.906 425.572ZM990.316 309.95C991.848 309.789 992.629 308.03 991.724 306.785L944.861 242.35C943.956 241.105 942.042 241.307 941.416 242.714L909.045 315.515C908.42 316.922 909.552 318.479 911.083 318.317L990.316 309.95ZM265.125 1694.76C266.656 1694.6 267.438 1692.84 266.532 1691.59L219.67 1627.16C218.764 1625.91 216.85 1626.12 216.225 1627.52L183.854 1700.33C183.228 1701.73 184.36 1703.29 185.891 1703.13L265.125 1694.76ZM319.35 1572.81C320.256 1574.05 319.474 1575.81 317.943 1575.97L238.709 1584.34C237.178 1584.5 236.046 1582.95 236.672 1581.54L269.043 1508.74C269.668 1507.33 271.582 1507.13 272.488 1508.37L319.35 1572.81ZM370.761 1457.19C372.292 1457.02 373.074 1455.27 372.169 1454.02L325.306 1389.59C324.4 1388.34 322.486 1388.54 321.861 1389.95L289.49 1462.75C288.864 1464.16 289.996 1465.71 291.527 1465.55L370.761 1457.19ZM424.987 1335.23C425.892 1336.48 425.11 1338.24 423.579 1338.4L344.345 1346.77C342.814 1346.93 341.682 1345.37 342.308 1343.97L374.679 1271.16C375.305 1269.76 377.218 1269.55 378.124 1270.8L424.987 1335.23ZM476.397 1219.61C477.928 1219.45 478.71 1217.69 477.805 1216.45L430.942 1152.01C430.037 1150.77 428.123 1150.97 427.497 1152.38L395.126 1225.18C394.5 1226.59 395.632 1228.14 397.163 1227.98L476.397 1219.61ZM530.623 1097.66C531.528 1098.91 530.747 1100.67 529.215 1100.83L449.982 1109.19C448.451 1109.36 447.319 1107.8 447.944 1106.39L480.315 1033.59C480.941 1032.18 482.855 1031.98 483.76 1033.23L530.623 1097.66ZM582.034 982.04C583.565 981.879 584.347 980.12 583.441 978.875L536.578 914.44C535.673 913.195 533.759 913.397 533.133 914.804L500.762 987.606C500.137 989.012 501.269 990.569 502.8 990.407L582.034 982.04ZM636.259 860.089C637.165 861.334 636.383 863.092 634.852 863.254L555.618 871.621C554.087 871.782 552.955 870.226 553.58 868.819L585.951 796.017C586.577 794.61 588.491 794.408 589.396 795.653L636.259 860.089ZM687.67 744.467C689.201 744.306 689.983 742.547 689.077 741.302L642.214 676.867C641.309 675.622 639.395 675.824 638.77 677.231L606.398 750.032C605.773 751.439 606.905 752.996 608.436 752.834L687.67 744.467ZM741.895 622.515C742.801 623.76 742.019 625.519 740.488 625.681L661.254 634.047C659.723 634.209 658.591 632.653 659.217 631.246L691.588 558.444C692.213 557.037 694.127 556.835 695.033 558.08L741.895 622.515ZM793.306 506.894C794.837 506.732 795.619 504.974 794.713 503.729L747.851 439.294C746.945 438.049 745.031 438.251 744.406 439.657L712.035 512.459C711.409 513.866 712.541 515.423 714.072 515.261L793.306 506.894ZM847.531 384.942C848.437 386.187 847.655 387.946 846.124 388.108L766.89 396.474C765.359 396.636 764.227 395.08 764.853 393.673L797.224 320.871C797.849 319.464 799.763 319.262 800.669 320.507L847.531 384.942ZM898.942 269.321C900.473 269.159 901.255 267.401 900.35 266.156L853.487 201.721C852.581 200.475 850.667 200.678 850.042 202.084L817.671 274.886C817.045 276.293 818.177 277.849 819.708 277.688L898.942 269.321ZM173.751 1654.13C175.282 1653.97 176.064 1652.21 175.158 1650.97L128.295 1586.53C127.39 1585.28 125.476 1585.49 124.85 1586.89L92.4793 1659.7C91.8538 1661.1 92.9857 1662.66 94.5168 1662.5L173.751 1654.13ZM227.976 1532.18C228.882 1533.42 228.1 1535.18 226.569 1535.34L147.335 1543.71C145.804 1543.87 144.672 1542.32 145.297 1540.91L177.669 1468.11C178.294 1466.7 180.208 1466.5 181.113 1467.74L227.976 1532.18ZM279.387 1416.56C280.918 1416.4 281.7 1414.64 280.794 1413.39L233.932 1348.96C233.026 1347.71 231.112 1347.91 230.487 1349.32L198.116 1422.12C197.49 1423.53 198.622 1425.09 200.153 1424.92L279.387 1416.56ZM333.612 1294.61C334.518 1295.85 333.736 1297.61 332.205 1297.77L252.971 1306.14C251.44 1306.3 250.308 1304.74 250.934 1303.34L283.305 1230.53C283.93 1229.13 285.844 1228.93 286.75 1230.17L333.612 1294.61ZM385.023 1178.98C386.554 1178.82 387.336 1177.06 386.43 1175.82L339.568 1111.38C338.662 1110.14 336.748 1110.34 336.123 1111.75L303.752 1184.55C303.126 1185.96 304.258 1187.51 305.789 1187.35L385.023 1178.98ZM439.249 1057.03C440.154 1058.28 439.372 1060.04 437.841 1060.2L358.607 1068.56C357.076 1068.73 355.944 1067.17 356.57 1065.76L388.941 992.961C389.566 991.554 391.48 991.352 392.386 992.597L439.249 1057.03ZM490.659 941.411C492.19 941.249 492.972 939.491 492.067 938.246L445.204 873.811C444.298 872.566 442.385 872.768 441.759 874.174L409.388 946.976C408.762 948.383 409.894 949.939 411.425 949.778L490.659 941.411ZM544.885 819.459C545.79 820.704 545.008 822.463 543.477 822.625L464.244 830.991C462.712 831.153 461.58 829.596 462.206 828.19L494.577 755.388C495.203 753.981 497.117 753.779 498.022 755.024L544.885 819.459ZM596.295 703.838C597.827 703.676 598.608 701.918 597.703 700.673L550.84 636.237C549.935 634.992 548.021 635.194 547.395 636.601L515.024 709.403C514.399 710.81 515.531 712.366 517.062 712.205L596.295 703.838ZM650.521 581.886C651.427 583.131 650.645 584.89 649.114 585.051L569.88 593.418C568.349 593.58 567.217 592.023 567.842 590.617L600.213 517.815C600.839 516.408 602.753 516.206 603.658 517.451L650.521 581.886ZM701.932 466.265C703.463 466.103 704.245 464.345 703.339 463.1L656.476 398.664C655.571 397.419 653.657 397.621 653.031 399.028L620.66 471.83C620.035 473.237 621.167 474.793 622.698 474.632L701.932 466.265ZM756.157 344.313C757.063 345.558 756.281 347.317 754.75 347.478L675.516 355.845C673.985 356.007 672.853 354.45 673.478 353.043L705.85 280.242C706.475 278.835 708.389 278.633 709.295 279.878L756.157 344.313ZM807.568 228.692C809.099 228.53 809.881 226.772 808.975 225.526L762.113 161.091C761.207 159.846 759.293 160.048 758.668 161.455L726.297 234.257C725.671 235.664 726.803 237.22 728.334 237.058L807.568 228.692ZM82.3763 1613.5C83.9074 1613.34 84.6893 1611.58 83.7838 1610.34L36.9211 1545.9C36.0155 1544.66 34.1017 1544.86 33.4761 1546.26L1.10503 1619.07C0.479486 1620.47 1.61144 1622.03 3.14252 1621.87L82.3763 1613.5ZM136.602 1491.55C137.507 1492.79 136.726 1494.55 135.194 1494.71L55.9606 1503.08C54.4295 1503.24 53.2976 1501.69 53.9231 1500.28L86.2942 1427.48C86.9198 1426.07 88.8337 1425.87 89.7392 1427.11L136.602 1491.55ZM188.013 1375.93C189.544 1375.77 190.326 1374.01 189.42 1372.76L142.557 1308.33C141.652 1307.08 139.738 1307.28 139.112 1308.69L106.741 1381.49C106.116 1382.9 107.248 1384.46 108.779 1384.29L188.013 1375.93ZM242.238 1253.98C243.144 1255.22 242.362 1256.98 240.831 1257.14L161.597 1265.51C160.066 1265.67 158.934 1264.11 159.559 1262.71L191.93 1189.9C192.556 1188.5 194.47 1188.3 195.375 1189.54L242.238 1253.98ZM293.649 1138.35C295.18 1138.19 295.962 1136.43 295.056 1135.19L248.194 1070.75C247.288 1069.51 245.374 1069.71 244.749 1071.12L212.377 1143.92C211.752 1145.33 212.884 1146.88 214.415 1146.72L293.649 1138.35ZM347.874 1016.4C348.78 1017.65 347.998 1019.41 346.467 1019.57L267.233 1027.94C265.702 1028.1 264.57 1026.54 265.196 1025.13L297.567 952.332C298.192 950.925 300.106 950.723 301.012 951.968L347.874 1016.4ZM399.285 900.782C400.816 900.62 401.598 898.862 400.692 897.616L353.83 833.181C352.924 831.936 351.01 832.138 350.385 833.545L318.014 906.347C317.388 907.754 318.52 909.31 320.051 909.148L399.285 900.782ZM453.511 778.83C454.416 780.075 453.634 781.834 452.103 781.995L372.869 790.362C371.338 790.524 370.206 788.967 370.832 787.56L403.203 714.759C403.828 713.352 405.742 713.15 406.648 714.395L453.511 778.83ZM504.921 663.209C506.452 663.047 507.234 661.288 506.329 660.043L459.466 595.608C458.56 594.363 456.647 594.565 456.021 595.972L423.65 668.774C423.024 670.181 424.156 671.737 425.687 671.575L504.921 663.209ZM559.147 541.257C560.052 542.502 559.27 544.26 557.739 544.422L478.505 552.789C476.974 552.95 475.842 551.394 476.468 549.987L508.839 477.185C509.465 475.779 511.379 475.577 512.284 476.822L559.147 541.257ZM610.557 425.636C612.088 425.474 612.87 423.715 611.965 422.47L565.102 358.035C564.197 356.79 562.283 356.992 561.657 358.399L529.286 431.201C528.661 432.607 529.792 434.164 531.324 434.002L610.557 425.636ZM664.783 303.684C665.689 304.929 664.907 306.687 663.375 306.849L584.142 315.216C582.611 315.377 581.479 313.821 582.104 312.414L614.475 239.612C615.101 238.205 617.015 238.003 617.92 239.249L664.783 303.684ZM716.194 188.062C717.725 187.901 718.507 186.142 717.601 184.897L670.738 120.462C669.833 119.217 667.919 119.419 667.293 120.826L634.922 193.628C634.297 195.034 635.429 196.591 636.96 196.429L716.194 188.062Z"
    fill="url(#paint0_linear_175_5306)" />
  <defs>
    <linearGradient id="paint0_linear_175_5306" x1="83.7678" y1="478.909" x2="1118.98" y2="777.853"
      gradientUnits="userSpaceOnUse">
      <stop offset="0.402872" stop-color="#020E0C" />
      <stop offset="0.675989" stop-color="#1A6358" />
      <stop offset="1" stop-color="#99FFF0" />
    </linearGradient>
  </defs>
</svg>